<svg width="242" height="110" viewBox="0 0 242 110" fill="none" xmlns="http://www.w3.org/2000/svg">
<g filter="url(#filter0_d_11584_461)">
<rect x="20" y="18" width="202" height="70" rx="12" fill="white"/>
<g clip-path="url(#clip0_11584_461)">
<mask id="mask0_11584_461" style="mask-type:luminance" maskUnits="userSpaceOnUse" x="32" y="32" width="42" height="42">
<path d="M63.5 32H42.5C36.701 32 32 36.701 32 42.5V63.5C32 69.299 36.701 74 42.5 74H63.5C69.299 74 74 69.299 74 63.5V42.5C74 36.701 69.299 32 63.5 32Z" fill="white"/>
</mask>
<g mask="url(#mask0_11584_461)">
<path d="M63.5 32H42.5C36.701 32 32 36.701 32 42.5V63.5C32 69.299 36.701 74 42.5 74H63.5C69.299 74 74 69.299 74 63.5V42.5C74 36.701 69.299 32 63.5 32Z" fill="#DD2590"/>
<path d="M32 32H74V74H32V32Z" fill="url(#paint0_linear_11584_461)"/>
<path d="M54.4025 41.8658C52.3523 39.8156 49.0282 39.8156 46.9779 41.8658L39.5533 49.2904C37.5031 51.3407 37.5031 54.6649 39.5533 56.7151L46.9779 64.1397C49.0282 66.1899 52.3523 66.1899 54.4025 64.1397L57.9452 60.5971C54.9961 59.4593 52.9038 56.5976 52.9038 53.2473C52.9038 49.7634 55.1661 46.808 58.3017 45.7698C58.2405 45.7053 58.1782 45.6414 58.1149 45.5782L54.4025 41.8658Z" fill="url(#paint1_linear_11584_461)"/>
<path opacity="0.5" d="M57.9453 60.5999C58.8245 60.9391 59.7798 61.125 60.7787 61.125C65.1278 61.125 68.6537 57.5993 68.6537 53.25C68.6537 48.9007 65.1278 45.375 60.7787 45.375C59.9134 45.375 59.0807 45.5146 58.302 45.7723C62.2147 49.8858 62.1525 56.3928 58.1151 60.4301L57.9453 60.5999Z" fill="url(#paint2_linear_11584_461)"/>
</g>
<path d="M63.5 32.875H42.5C37.1843 32.875 32.875 37.1843 32.875 42.5V63.5C32.875 68.8157 37.1843 73.125 42.5 73.125H63.5C68.8157 73.125 73.125 68.8157 73.125 63.5V42.5C73.125 37.1843 68.8157 32.875 63.5 32.875Z" stroke="url(#paint3_linear_11584_461)" stroke-width="2"/>
</g>
<path d="M84.512 48L88.848 36.48H90.32L86.176 48H84.512ZM93.424 48L89.28 36.48H90.832L95.184 48H93.424ZM86.704 43.408H92.88V44.816H86.704V43.408ZM96.8711 48V36.48H98.5351V48H96.8711ZM105.223 48.144C104.455 48.144 103.815 47.9627 103.303 47.6C102.802 47.2267 102.471 46.7093 102.311 46.048L102.535 46.016V51.28H100.871V39.84H102.455V41.712L102.295 41.664C102.466 41.0453 102.828 40.56 103.383 40.208C103.938 39.856 104.588 39.68 105.335 39.68C106.071 39.68 106.706 39.856 107.239 40.208C107.783 40.56 108.199 41.0507 108.487 41.68C108.786 42.3093 108.935 43.0453 108.935 43.888C108.935 44.7413 108.78 45.488 108.471 46.128C108.162 46.768 107.73 47.264 107.175 47.616C106.62 47.968 105.97 48.144 105.223 48.144ZM104.871 46.768C105.596 46.768 106.172 46.512 106.599 46C107.026 45.488 107.239 44.784 107.239 43.888C107.239 43.0027 107.026 42.3147 106.599 41.824C106.172 41.3227 105.591 41.072 104.855 41.072C104.13 41.072 103.548 41.328 103.111 41.84C102.684 42.3413 102.471 43.04 102.471 43.936C102.471 44.8107 102.684 45.504 103.111 46.016C103.548 46.5173 104.135 46.768 104.871 46.768ZM110.684 48V36.48H112.348V48H110.684ZM116.476 48V42.752C116.476 42.1867 116.332 41.7653 116.044 41.488C115.766 41.2107 115.35 41.072 114.796 41.072C114.316 41.072 113.889 41.1787 113.516 41.392C113.153 41.6053 112.865 41.8987 112.652 42.272C112.449 42.6453 112.348 43.088 112.348 43.6L112.14 41.648C112.406 41.04 112.817 40.56 113.372 40.208C113.926 39.856 114.572 39.68 115.308 39.68C116.182 39.68 116.87 39.9253 117.372 40.416C117.873 40.9067 118.124 41.5573 118.124 42.368V48H116.476ZM125.349 48C125.296 47.7973 125.258 47.5733 125.237 47.328C125.226 47.0827 125.221 46.784 125.221 46.432H125.141V42.544C125.141 42.0213 125.008 41.632 124.741 41.376C124.485 41.1093 124.074 40.976 123.509 40.976C122.965 40.976 122.528 41.0827 122.197 41.296C121.877 41.5093 121.69 41.8133 121.637 42.208H120.053C120.128 41.44 120.474 40.8267 121.093 40.368C121.712 39.9093 122.538 39.68 123.573 39.68C124.64 39.68 125.44 39.9307 125.973 40.432C126.506 40.9227 126.773 41.648 126.773 42.608V46.432C126.773 46.6773 126.789 46.928 126.821 47.184C126.853 47.44 126.901 47.712 126.965 48H125.349ZM122.533 48.16C121.701 48.16 121.04 47.9573 120.549 47.552C120.058 47.136 119.813 46.576 119.813 45.872C119.813 45.1467 120.069 44.576 120.581 44.16C121.104 43.7333 121.85 43.4453 122.821 43.296L125.509 42.864V44.032L123.077 44.416C122.533 44.5013 122.122 44.6453 121.845 44.848C121.578 45.0507 121.445 45.344 121.445 45.728C121.445 46.1013 121.568 46.384 121.813 46.576C122.069 46.7573 122.437 46.848 122.917 46.848C123.557 46.848 124.085 46.6933 124.501 46.384C124.928 46.0747 125.141 45.6853 125.141 45.216L125.349 46.4C125.157 46.9653 124.816 47.4027 124.325 47.712C123.834 48.0107 123.237 48.16 122.533 48.16ZM130.301 48L127.805 39.84H129.517L131.213 46.4H130.973L133.037 39.84H134.477L136.541 46.4H136.317L137.997 39.84H139.629L137.133 48H135.677L133.613 41.552H133.853L131.757 48H130.301ZM145.943 48C145.889 47.7973 145.852 47.5733 145.831 47.328C145.82 47.0827 145.815 46.784 145.815 46.432H145.735V42.544C145.735 42.0213 145.601 41.632 145.335 41.376C145.079 41.1093 144.668 40.976 144.103 40.976C143.559 40.976 143.121 41.0827 142.791 41.296C142.471 41.5093 142.284 41.8133 142.231 42.208H140.647C140.721 41.44 141.068 40.8267 141.687 40.368C142.305 39.9093 143.132 39.68 144.167 39.68C145.233 39.68 146.033 39.9307 146.567 40.432C147.1 40.9227 147.367 41.648 147.367 42.608V46.432C147.367 46.6773 147.383 46.928 147.415 47.184C147.447 47.44 147.495 47.712 147.559 48H145.943ZM143.127 48.16C142.295 48.16 141.633 47.9573 141.143 47.552C140.652 47.136 140.407 46.576 140.407 45.872C140.407 45.1467 140.663 44.576 141.175 44.16C141.697 43.7333 142.444 43.4453 143.415 43.296L146.103 42.864V44.032L143.671 44.416C143.127 44.5013 142.716 44.6453 142.439 44.848C142.172 45.0507 142.039 45.344 142.039 45.728C142.039 46.1013 142.161 46.384 142.407 46.576C142.663 46.7573 143.031 46.848 143.511 46.848C144.151 46.848 144.679 46.6933 145.095 46.384C145.521 46.0747 145.735 45.6853 145.735 45.216L145.943 46.4C145.751 46.9653 145.409 47.4027 144.919 47.712C144.428 48.0107 143.831 48.16 143.127 48.16ZM151.567 48L148.239 39.84H150.015L152.735 47.248H151.951L154.639 39.84H156.351L153.039 48H151.567ZM161.016 48.16C160.195 48.16 159.469 47.9787 158.84 47.616C158.221 47.2533 157.736 46.752 157.384 46.112C157.032 45.472 156.856 44.736 156.856 43.904C156.856 43.0613 157.027 42.3253 157.368 41.696C157.72 41.056 158.211 40.56 158.84 40.208C159.469 39.856 160.189 39.68 161 39.68C161.789 39.68 162.472 39.8507 163.048 40.192C163.635 40.5227 164.083 40.9867 164.392 41.584C164.712 42.1813 164.872 42.8907 164.872 43.712C164.872 43.84 164.867 43.9627 164.856 44.08C164.856 44.1867 164.845 44.2987 164.824 44.416H157.976V43.168H163.656L163.24 43.664C163.24 42.7893 163.043 42.1227 162.648 41.664C162.253 41.2053 161.704 40.976 161 40.976C160.243 40.976 159.64 41.2373 159.192 41.76C158.755 42.272 158.536 42.9867 158.536 43.904C158.536 44.832 158.755 45.5573 159.192 46.08C159.64 46.6027 160.259 46.864 161.048 46.864C161.528 46.864 161.944 46.768 162.296 46.576C162.648 46.3733 162.909 46.08 163.08 45.696H164.648C164.381 46.464 163.928 47.0667 163.288 47.504C162.659 47.9413 161.901 48.16 161.016 48.16Z" fill="#444444"/>
<path d="M89.008 72.192C88.4213 72.192 87.8827 72.1227 87.392 71.984C86.912 71.8453 86.4853 71.6533 86.112 71.408C85.7493 71.1627 85.4453 70.8907 85.2 70.592C84.9653 70.2827 84.8 69.9627 84.704 69.632L86.528 69.072C86.6667 69.4667 86.9387 69.8133 87.344 70.112C87.7493 70.4107 88.2507 70.5653 88.848 70.576C89.5413 70.576 90.0907 70.432 90.496 70.144C90.9013 69.856 91.104 69.4773 91.104 69.008C91.104 68.5813 90.9333 68.2347 90.592 67.968C90.2507 67.6907 89.792 67.4773 89.216 67.328L87.84 66.976C87.3173 66.8373 86.8427 66.6347 86.416 66.368C86 66.1013 85.6693 65.7653 85.424 65.36C85.1893 64.9547 85.072 64.4747 85.072 63.92C85.072 62.8747 85.4133 62.064 86.096 61.488C86.7787 60.9013 87.7547 60.608 89.024 60.608C89.7387 60.608 90.3627 60.72 90.896 60.944C91.44 61.1573 91.888 61.456 92.24 61.84C92.592 62.2133 92.8533 62.64 93.024 63.12L91.232 63.696C91.072 63.2693 90.7947 62.9173 90.4 62.64C90.0053 62.3627 89.5147 62.224 88.928 62.224C88.32 62.224 87.84 62.368 87.488 62.656C87.1467 62.944 86.976 63.344 86.976 63.856C86.976 64.272 87.1093 64.5973 87.376 64.832C87.6533 65.056 88.0267 65.2267 88.496 65.344L89.872 65.68C90.8747 65.9253 91.6533 66.3467 92.208 66.944C92.7627 67.5413 93.04 68.2027 93.04 68.928C93.04 69.568 92.8853 70.1333 92.576 70.624C92.2667 71.1147 91.808 71.4987 91.2 71.776C90.6027 72.0533 89.872 72.192 89.008 72.192ZM99.6376 72L99.5576 70.496V67.888C99.5576 67.344 99.499 66.8907 99.3816 66.528C99.275 66.1547 99.0936 65.872 98.8376 65.68C98.5923 65.4773 98.2616 65.376 97.8456 65.376C97.4616 65.376 97.1256 65.456 96.8376 65.616C96.5496 65.776 96.3043 66.0267 96.1016 66.368L94.5336 65.792C94.7043 65.44 94.9283 65.1147 95.2056 64.816C95.4936 64.5067 95.851 64.2613 96.2776 64.08C96.715 63.8987 97.2376 63.808 97.8456 63.808C98.6243 63.808 99.275 63.9627 99.7976 64.272C100.32 64.5707 100.704 65.0027 100.95 65.568C101.206 66.1333 101.334 66.816 101.334 67.616L101.286 72H99.6376ZM97.3336 72.192C96.3736 72.192 95.627 71.9787 95.0936 71.552C94.571 71.1253 94.3096 70.5227 94.3096 69.744C94.3096 68.912 94.587 68.2773 95.1416 67.84C95.707 67.4027 96.491 67.184 97.4936 67.184H99.6376V68.56H98.0696C97.355 68.56 96.8536 68.6613 96.5656 68.864C96.2776 69.056 96.1336 69.3333 96.1336 69.696C96.1336 70.0053 96.2563 70.2507 96.5016 70.432C96.7576 70.6027 97.1096 70.688 97.5576 70.688C97.963 70.688 98.315 70.5973 98.6136 70.416C98.9123 70.2347 99.1416 69.9947 99.3016 69.696C99.4723 69.3973 99.5576 69.0613 99.5576 68.688H100.086C100.086 69.776 99.867 70.6347 99.4296 71.264C98.9923 71.8827 98.2936 72.192 97.3336 72.192ZM108.028 72L107.948 70.496V67.888C107.948 67.344 107.89 66.8907 107.772 66.528C107.666 66.1547 107.484 65.872 107.228 65.68C106.983 65.4773 106.652 65.376 106.236 65.376C105.852 65.376 105.516 65.456 105.228 65.616C104.94 65.776 104.695 66.0267 104.492 66.368L102.924 65.792C103.095 65.44 103.319 65.1147 103.596 64.816C103.884 64.5067 104.242 64.2613 104.668 64.08C105.106 63.8987 105.628 63.808 106.236 63.808C107.015 63.808 107.666 63.9627 108.188 64.272C108.711 64.5707 109.095 65.0027 109.34 65.568C109.596 66.1333 109.724 66.816 109.724 67.616L109.676 72H108.028ZM105.724 72.192C104.764 72.192 104.018 71.9787 103.484 71.552C102.962 71.1253 102.7 70.5227 102.7 69.744C102.7 68.912 102.978 68.2773 103.532 67.84C104.098 67.4027 104.882 67.184 105.884 67.184H108.028V68.56H106.46C105.746 68.56 105.244 68.6613 104.956 68.864C104.668 69.056 104.524 69.3333 104.524 69.696C104.524 70.0053 104.647 70.2507 104.892 70.432C105.148 70.6027 105.5 70.688 105.948 70.688C106.354 70.688 106.706 70.5973 107.004 70.416C107.303 70.2347 107.532 69.9947 107.692 69.696C107.863 69.3973 107.948 69.0613 107.948 68.688H108.476C108.476 69.776 108.258 70.6347 107.82 71.264C107.383 71.8827 106.684 72.192 105.724 72.192ZM114.451 72.192C113.918 72.192 113.427 72.112 112.979 71.952C112.531 71.792 112.147 71.568 111.827 71.28C111.507 70.9813 111.262 70.6347 111.091 70.24L112.643 69.552C112.803 69.8507 113.038 70.1013 113.347 70.304C113.667 70.5067 114.019 70.608 114.403 70.608C114.819 70.608 115.15 70.5387 115.395 70.4C115.651 70.2507 115.779 70.048 115.779 69.792C115.779 69.5467 115.683 69.36 115.491 69.232C115.299 69.0933 115.027 68.9813 114.675 68.896L113.923 68.688C113.166 68.496 112.574 68.192 112.147 67.776C111.72 67.3493 111.507 66.864 111.507 66.32C111.507 65.52 111.763 64.9013 112.275 64.464C112.798 64.0267 113.544 63.808 114.515 63.808C115.006 63.808 115.454 63.8827 115.859 64.032C116.275 64.1707 116.632 64.3733 116.931 64.64C117.23 64.896 117.438 65.2 117.555 65.552L116.067 66.224C115.96 65.9573 115.758 65.7547 115.459 65.616C115.16 65.4667 114.83 65.392 114.467 65.392C114.104 65.392 113.822 65.472 113.619 65.632C113.416 65.7813 113.315 65.9947 113.315 66.272C113.315 66.432 113.406 66.5813 113.587 66.72C113.768 66.848 114.03 66.9547 114.371 67.04L115.315 67.264C115.838 67.392 116.264 67.5947 116.595 67.872C116.926 68.1387 117.171 68.4427 117.331 68.784C117.491 69.1147 117.571 69.4507 117.571 69.792C117.571 70.272 117.432 70.6933 117.155 71.056C116.888 71.4187 116.52 71.7013 116.051 71.904C115.582 72.096 115.048 72.192 114.451 72.192ZM123.187 72V60.8H126.707C127.806 60.8 128.777 61.04 129.619 61.52C130.473 61.9893 131.139 62.6453 131.619 63.488C132.11 64.3307 132.355 65.3013 132.355 66.4C132.355 67.488 132.11 68.4533 131.619 69.296C131.139 70.1387 130.473 70.8 129.619 71.28C128.777 71.76 127.806 72 126.707 72H123.187ZM125.043 70.272H126.707C127.23 70.272 127.721 70.176 128.179 69.984C128.638 69.7813 129.038 69.504 129.379 69.152C129.721 68.8 129.987 68.3893 130.179 67.92C130.371 67.4507 130.467 66.944 130.467 66.4C130.467 65.856 130.371 65.3493 130.179 64.88C129.987 64.4107 129.721 64 129.379 63.648C129.038 63.296 128.638 63.024 128.179 62.832C127.721 62.6293 127.23 62.528 126.707 62.528H125.043V70.272ZM137.544 72.192C136.766 72.192 136.072 72.016 135.464 71.664C134.867 71.3013 134.392 70.8053 134.04 70.176C133.699 69.5467 133.528 68.8213 133.528 68C133.528 67.1787 133.704 66.4533 134.056 65.824C134.408 65.1947 134.888 64.704 135.496 64.352C136.115 63.9893 136.819 63.808 137.608 63.808C138.323 63.808 138.968 63.9947 139.544 64.368C140.12 64.7307 140.574 65.2587 140.904 65.952C141.246 66.6453 141.416 67.472 141.416 68.432H135.128L135.368 68.208C135.368 68.6987 135.475 69.1253 135.688 69.488C135.902 69.84 136.184 70.112 136.536 70.304C136.888 70.496 137.278 70.592 137.704 70.592C138.195 70.592 138.6 70.4853 138.92 70.272C139.24 70.048 139.491 69.76 139.672 69.408L141.256 70.08C141.032 70.5067 140.744 70.88 140.392 71.2C140.051 71.52 139.64 71.7653 139.16 71.936C138.691 72.1067 138.152 72.192 137.544 72.192ZM135.48 67.28L135.224 67.056H139.736L139.496 67.28C139.496 66.8427 139.4 66.4853 139.208 66.208C139.016 65.92 138.771 65.7067 138.472 65.568C138.184 65.4187 137.88 65.344 137.56 65.344C137.24 65.344 136.92 65.4187 136.6 65.568C136.28 65.7067 136.014 65.92 135.8 66.208C135.587 66.4853 135.48 66.8427 135.48 67.28ZM145.701 72.192C145.168 72.192 144.677 72.112 144.229 71.952C143.781 71.792 143.397 71.568 143.077 71.28C142.757 70.9813 142.512 70.6347 142.341 70.24L143.893 69.552C144.053 69.8507 144.288 70.1013 144.597 70.304C144.917 70.5067 145.269 70.608 145.653 70.608C146.069 70.608 146.4 70.5387 146.645 70.4C146.901 70.2507 147.029 70.048 147.029 69.792C147.029 69.5467 146.933 69.36 146.741 69.232C146.549 69.0933 146.277 68.9813 145.925 68.896L145.173 68.688C144.416 68.496 143.824 68.192 143.397 67.776C142.97 67.3493 142.757 66.864 142.757 66.32C142.757 65.52 143.013 64.9013 143.525 64.464C144.048 64.0267 144.794 63.808 145.765 63.808C146.256 63.808 146.704 63.8827 147.109 64.032C147.525 64.1707 147.882 64.3733 148.181 64.64C148.48 64.896 148.688 65.2 148.805 65.552L147.317 66.224C147.21 65.9573 147.008 65.7547 146.709 65.616C146.41 65.4667 146.08 65.392 145.717 65.392C145.354 65.392 145.072 65.472 144.869 65.632C144.666 65.7813 144.565 65.9947 144.565 66.272C144.565 66.432 144.656 66.5813 144.837 66.72C145.018 66.848 145.28 66.9547 145.621 67.04L146.565 67.264C147.088 67.392 147.514 67.5947 147.845 67.872C148.176 68.1387 148.421 68.4427 148.581 68.784C148.741 69.1147 148.821 69.4507 148.821 69.792C148.821 70.272 148.682 70.6933 148.405 71.056C148.138 71.4187 147.77 71.7013 147.301 71.904C146.832 72.096 146.298 72.192 145.701 72.192ZM150.354 72V64H152.13V72H150.354ZM151.25 62.48C150.962 62.48 150.711 62.3787 150.498 62.176C150.295 61.9627 150.194 61.712 150.194 61.424C150.194 61.136 150.295 60.8907 150.498 60.688C150.711 60.4853 150.962 60.384 151.25 60.384C151.538 60.384 151.783 60.4853 151.986 60.688C152.199 60.8907 152.306 61.136 152.306 61.424C152.306 61.712 152.199 61.9627 151.986 62.176C151.783 62.3787 151.538 62.48 151.25 62.48ZM157.682 75.408C157.117 75.408 156.605 75.36 156.146 75.264C155.698 75.168 155.319 75.056 155.01 74.928C154.701 74.8 154.461 74.6773 154.29 74.56L154.978 73.12C155.127 73.1947 155.325 73.2853 155.57 73.392C155.826 73.5093 156.125 73.6107 156.466 73.696C156.807 73.7813 157.191 73.824 157.618 73.824C158.077 73.824 158.487 73.728 158.85 73.536C159.213 73.3547 159.495 73.072 159.698 72.688C159.901 72.304 160.002 71.8133 160.002 71.216V64H161.794V71.168C161.794 72.0747 161.623 72.8427 161.282 73.472C160.941 74.112 160.461 74.592 159.842 74.912C159.223 75.2427 158.503 75.408 157.682 75.408ZM157.41 71.84C156.685 71.84 156.05 71.6747 155.506 71.344C154.973 71.0133 154.551 70.5547 154.242 69.968C153.943 69.3707 153.794 68.6827 153.794 67.904C153.794 67.072 153.943 66.352 154.242 65.744C154.551 65.136 154.973 64.6613 155.506 64.32C156.05 63.9787 156.685 63.808 157.41 63.808C158.061 63.808 158.626 63.9787 159.106 64.32C159.597 64.6613 159.975 65.1413 160.242 65.76C160.509 66.368 160.642 67.088 160.642 67.92C160.642 68.7093 160.509 69.3973 160.242 69.984C159.975 70.5707 159.597 71.0293 159.106 71.36C158.626 71.68 158.061 71.84 157.41 71.84ZM157.906 70.32C158.311 70.32 158.663 70.2133 158.962 70C159.271 69.7867 159.511 69.4987 159.682 69.136C159.853 68.7627 159.938 68.336 159.938 67.856C159.938 67.3653 159.853 66.9387 159.682 66.576C159.511 66.2027 159.271 65.9147 158.962 65.712C158.653 65.4987 158.295 65.392 157.89 65.392C157.463 65.392 157.085 65.4987 156.754 65.712C156.434 65.9147 156.178 66.2027 155.986 66.576C155.805 66.9387 155.714 67.3653 155.714 67.856C155.714 68.336 155.805 68.7627 155.986 69.136C156.178 69.4987 156.439 69.7867 156.77 70C157.101 70.2133 157.479 70.32 157.906 70.32ZM163.773 72V64H165.453L165.565 65.472V72H163.773ZM169.197 72V67.904H170.989V72H169.197ZM169.197 67.904C169.197 67.264 169.123 66.7733 168.973 66.432C168.835 66.08 168.632 65.8347 168.365 65.696C168.109 65.5573 167.805 65.488 167.453 65.488C166.856 65.4773 166.392 65.6747 166.061 66.08C165.731 66.4853 165.565 67.0667 165.565 67.824H164.893C164.893 66.9813 165.016 66.2613 165.261 65.664C165.507 65.056 165.859 64.5973 166.317 64.288C166.776 63.968 167.32 63.808 167.949 63.808C168.589 63.808 169.133 63.936 169.581 64.192C170.04 64.448 170.387 64.848 170.621 65.392C170.867 65.9253 170.989 66.624 170.989 67.488V67.904H169.197ZM176.373 72.192C175.594 72.192 174.901 72.016 174.293 71.664C173.695 71.3013 173.221 70.8053 172.868 70.176C172.527 69.5467 172.357 68.8213 172.357 68C172.357 67.1787 172.533 66.4533 172.885 65.824C173.237 65.1947 173.717 64.704 174.325 64.352C174.943 63.9893 175.647 63.808 176.437 63.808C177.151 63.808 177.797 63.9947 178.373 64.368C178.949 64.7307 179.402 65.2587 179.733 65.952C180.074 66.6453 180.245 67.472 180.245 68.432H173.957L174.197 68.208C174.197 68.6987 174.303 69.1253 174.517 69.488C174.73 69.84 175.013 70.112 175.365 70.304C175.717 70.496 176.106 70.592 176.533 70.592C177.023 70.592 177.429 70.4853 177.749 70.272C178.069 70.048 178.319 69.76 178.501 69.408L180.085 70.08C179.861 70.5067 179.573 70.88 179.221 71.2C178.879 71.52 178.469 71.7653 177.989 71.936C177.519 72.1067 176.981 72.192 176.373 72.192ZM174.309 67.28L174.053 67.056H178.565L178.325 67.28C178.325 66.8427 178.229 66.4853 178.037 66.208C177.845 65.92 177.599 65.7067 177.301 65.568C177.013 65.4187 176.709 65.344 176.389 65.344C176.069 65.344 175.749 65.4187 175.429 65.568C175.109 65.7067 174.842 65.92 174.629 66.208C174.415 66.4853 174.309 66.8427 174.309 67.28ZM182.801 67.744C182.801 66.88 182.966 66.1707 183.297 65.616C183.628 65.0613 184.054 64.6507 184.577 64.384C185.11 64.1067 185.665 63.968 186.241 63.968V65.68C185.75 65.68 185.286 65.7493 184.849 65.888C184.422 66.016 184.076 66.2293 183.809 66.528C183.542 66.8267 183.409 67.2213 183.409 67.712L182.801 67.744ZM181.617 72V64H183.409V72H181.617Z" fill="#1F1F1F"/>
</g>
<defs>
<filter id="filter0_d_11584_461" x="0" y="0" width="242" height="110" filterUnits="userSpaceOnUse" color-interpolation-filters="sRGB">
<feFlood flood-opacity="0" result="BackgroundImageFix"/>
<feColorMatrix in="SourceAlpha" type="matrix" values="0 0 0 0 0 0 0 0 0 0 0 0 0 0 0 0 0 0 127 0" result="hardAlpha"/>
<feOffset dy="2"/>
<feGaussianBlur stdDeviation="10"/>
<feComposite in2="hardAlpha" operator="out"/>
<feColorMatrix type="matrix" values="0 0 0 0 0.262745 0 0 0 0 0.262745 0 0 0 0 0.262745 0 0 0 0.1 0"/>
<feBlend mode="normal" in2="BackgroundImageFix" result="effect1_dropShadow_11584_461"/>
<feBlend mode="normal" in="SourceGraphic" in2="effect1_dropShadow_11584_461" result="shape"/>
</filter>
<linearGradient id="paint0_linear_11584_461" x1="53" y1="32" x2="54.75" y2="74" gradientUnits="userSpaceOnUse">
<stop stop-color="white" stop-opacity="0"/>
<stop offset="1" stop-color="white" stop-opacity="0.12"/>
</linearGradient>
<linearGradient id="paint1_linear_11584_461" x1="48.1587" y1="40.3281" x2="48.1587" y2="65.6773" gradientUnits="userSpaceOnUse">
<stop stop-color="white" stop-opacity="0.8"/>
<stop offset="1" stop-color="white" stop-opacity="0.5"/>
</linearGradient>
<linearGradient id="paint2_linear_11584_461" x1="63.2995" y1="45.375" x2="63.2995" y2="61.125" gradientUnits="userSpaceOnUse">
<stop stop-color="white" stop-opacity="0.8"/>
<stop offset="1" stop-color="white" stop-opacity="0.5"/>
</linearGradient>
<linearGradient id="paint3_linear_11584_461" x1="53" y1="32" x2="53" y2="74" gradientUnits="userSpaceOnUse">
<stop stop-color="white" stop-opacity="0.12"/>
<stop offset="1" stop-color="white" stop-opacity="0"/>
</linearGradient>
<clipPath id="clip0_11584_461">
<rect width="42" height="42" fill="white" transform="translate(32 32)"/>
</clipPath>
</defs>
</svg>
