<svg width="242" height="110" viewBox="0 0 242 110" fill="none" xmlns="http://www.w3.org/2000/svg">
<g filter="url(#filter0_d_11584_478)">
<rect x="20" y="18" width="202" height="70" rx="12" fill="white"/>
<g clip-path="url(#clip0_11584_478)">
<mask id="mask0_11584_478" style="mask-type:luminance" maskUnits="userSpaceOnUse" x="32" y="32" width="42" height="42">
<path d="M63.5 32H42.5C36.701 32 32 36.701 32 42.5V63.5C32 69.299 36.701 74 42.5 74H63.5C69.299 74 74 69.299 74 63.5V42.5C74 36.701 69.299 32 63.5 32Z" fill="white"/>
</mask>
<g mask="url(#mask0_11584_478)">
<path d="M63.5 32H42.5C36.701 32 32 36.701 32 42.5V63.5C32 69.299 36.701 74 42.5 74H63.5C69.299 74 74 69.299 74 63.5V42.5C74 36.701 69.299 32 63.5 32Z" fill="#FF4405"/>
<path d="M32 32H74V74H32V32Z" fill="url(#paint0_linear_11584_478)"/>
<path d="M56.9375 53C56.9375 55.1746 55.1746 56.9375 53 56.9375C50.8254 56.9375 49.0625 55.1746 49.0625 53C49.0625 50.8254 50.8254 49.0625 53 49.0625C55.1746 49.0625 56.9375 50.8254 56.9375 53Z" fill="url(#paint1_linear_11584_478)"/>
<path d="M56.9375 43.8125C56.9375 45.9871 55.1746 47.75 53 47.75C50.8254 47.75 49.0625 45.9871 49.0625 43.8125C49.0625 41.6379 50.8254 39.875 53 39.875C55.1746 39.875 56.9375 41.6379 56.9375 43.8125Z" fill="url(#paint2_linear_11584_478)"/>
<path d="M64.8946 57.5938C64.8946 59.7684 63.1317 61.5312 60.957 61.5312C58.7825 61.5312 57.0195 59.7684 57.0195 57.5938C57.0195 55.4191 58.7825 53.6562 60.957 53.6562C63.1317 53.6562 64.8946 55.4191 64.8946 57.5938Z" fill="url(#paint3_linear_11584_478)"/>
<path d="M64.8965 48.4064C64.8965 50.5811 63.1336 52.3439 60.959 52.3439C58.7843 52.3439 57.0215 50.5811 57.0215 48.4064C57.0215 46.2318 58.7843 44.4689 60.959 44.4689C63.1336 44.4689 64.8965 46.2318 64.8965 48.4064Z" fill="url(#paint4_linear_11584_478)"/>
<path d="M56.9375 62.1875C56.9375 64.3621 55.1746 66.125 53 66.125C50.8254 66.125 49.0625 64.3621 49.0625 62.1875C49.0625 60.0129 50.8254 58.25 53 58.25C55.1746 58.25 56.9375 60.0129 56.9375 62.1875Z" fill="url(#paint5_linear_11584_478)"/>
<path d="M48.9824 48.4062C48.9824 50.5809 47.2196 52.3438 45.0449 52.3438C42.8703 52.3438 41.1074 50.5809 41.1074 48.4062C41.1074 46.2316 42.8703 44.4688 45.0449 44.4688C47.2196 44.4688 48.9824 46.2316 48.9824 48.4062Z" fill="url(#paint6_linear_11584_478)"/>
<path d="M48.9805 57.5936C48.9805 59.7682 47.2176 61.5311 45.043 61.5311C42.8684 61.5311 41.1055 59.7682 41.1055 57.5936C41.1055 55.4189 42.8684 53.6561 45.043 53.6561C47.2176 53.6561 48.9805 55.4189 48.9805 57.5936Z" fill="url(#paint7_linear_11584_478)"/>
</g>
<path d="M63.5 32.875H42.5C37.1843 32.875 32.875 37.1843 32.875 42.5V63.5C32.875 68.8157 37.1843 73.125 42.5 73.125H63.5C68.8157 73.125 73.125 68.8157 73.125 63.5V42.5C73.125 37.1843 68.8157 32.875 63.5 32.875Z" stroke="url(#paint8_linear_11584_478)" stroke-width="2"/>
</g>
<path d="M90.32 48.16C89.4987 48.16 88.7467 48.016 88.064 47.728C87.3813 47.4293 86.7893 47.0133 86.288 46.48C85.7867 45.9467 85.392 45.3173 85.104 44.592C84.8267 43.8667 84.688 43.0667 84.688 42.192C84.688 41.04 84.928 40.0213 85.408 39.136C85.888 38.2507 86.5493 37.5627 87.392 37.072C88.2453 36.5707 89.216 36.32 90.304 36.32C91.4133 36.32 92.3893 36.5707 93.232 37.072C94.0747 37.5627 94.736 38.2507 95.216 39.136C95.7067 40.0213 95.952 41.0453 95.952 42.208C95.952 43.072 95.808 43.872 95.52 44.608C95.2427 45.3333 94.8533 45.9627 94.352 46.496C93.8507 47.0187 93.2533 47.4293 92.56 47.728C91.8773 48.016 91.1307 48.16 90.32 48.16ZM90.304 46.72C91.072 46.72 91.7493 46.528 92.336 46.144C92.9227 45.7493 93.3813 45.2107 93.712 44.528C94.0533 43.8453 94.224 43.0613 94.224 42.176C94.224 41.3013 94.0587 40.5333 93.728 39.872C93.3973 39.2 92.9387 38.6827 92.352 38.32C91.7653 37.9467 91.0827 37.76 90.304 37.76C89.5253 37.76 88.8427 37.9467 88.256 38.32C87.68 38.6827 87.2267 39.1947 86.896 39.856C86.576 40.5173 86.416 41.2907 86.416 42.176C86.416 43.072 86.5813 43.8613 86.912 44.544C87.2427 45.2267 87.696 45.76 88.272 46.144C88.8587 46.528 89.536 46.72 90.304 46.72ZM102.161 48.144C101.393 48.144 100.753 47.9627 100.241 47.6C99.7286 47.2267 99.3926 46.7093 99.2326 46.048L99.3926 46.016V48H97.8086V36.48H99.4726V41.712L99.2966 41.664C99.478 41.0453 99.83 40.56 100.353 40.208C100.886 39.856 101.526 39.68 102.273 39.68C103.009 39.68 103.643 39.856 104.177 40.208C104.721 40.56 105.137 41.0507 105.425 41.68C105.723 42.3093 105.873 43.0453 105.873 43.888C105.873 44.7413 105.718 45.488 105.409 46.128C105.099 46.768 104.667 47.264 104.113 47.616C103.558 47.968 102.907 48.144 102.161 48.144ZM101.809 46.768C102.534 46.768 103.11 46.512 103.537 46C103.963 45.488 104.177 44.784 104.177 43.888C104.177 43.0027 103.963 42.3147 103.537 41.824C103.11 41.3227 102.529 41.072 101.793 41.072C101.067 41.072 100.486 41.328 100.049 41.84C99.622 42.3413 99.4086 43.04 99.4086 43.936C99.4086 44.8107 99.622 45.504 100.049 46.016C100.486 46.5173 101.073 46.768 101.809 46.768ZM111.188 48.16C110.367 48.16 109.641 47.9787 109.012 47.616C108.393 47.2533 107.908 46.752 107.556 46.112C107.204 45.472 107.028 44.736 107.028 43.904C107.028 43.0613 107.199 42.3253 107.54 41.696C107.892 41.056 108.383 40.56 109.012 40.208C109.641 39.856 110.361 39.68 111.172 39.68C111.961 39.68 112.644 39.8507 113.22 40.192C113.807 40.5227 114.255 40.9867 114.564 41.584C114.884 42.1813 115.044 42.8907 115.044 43.712C115.044 43.84 115.039 43.9627 115.028 44.08C115.028 44.1867 115.017 44.2987 114.996 44.416H108.148V43.168H113.828L113.412 43.664C113.412 42.7893 113.215 42.1227 112.82 41.664C112.425 41.2053 111.876 40.976 111.172 40.976C110.415 40.976 109.812 41.2373 109.364 41.76C108.927 42.272 108.708 42.9867 108.708 43.904C108.708 44.832 108.927 45.5573 109.364 46.08C109.812 46.6027 110.431 46.864 111.22 46.864C111.7 46.864 112.116 46.768 112.468 46.576C112.82 46.3733 113.081 46.08 113.252 45.696H114.82C114.553 46.464 114.1 47.0667 113.46 47.504C112.831 47.9413 112.073 48.16 111.188 48.16ZM116.746 48V39.84H118.33V41.76H118.41V48H116.746ZM122.538 48V42.752C122.538 42.1867 122.394 41.7653 122.106 41.488C121.829 41.2107 121.413 41.072 120.858 41.072C120.378 41.072 119.951 41.1787 119.578 41.392C119.215 41.6053 118.927 41.8987 118.714 42.272C118.511 42.6453 118.41 43.088 118.41 43.6L118.202 41.648C118.469 41.04 118.879 40.56 119.434 40.208C119.989 39.856 120.634 39.68 121.37 39.68C122.245 39.68 122.933 39.9253 123.434 40.416C123.935 40.9067 124.186 41.5573 124.186 42.368V48H122.538ZM131.736 48L129.128 44.272L125.816 39.84H127.704L130.088 43.248L133.624 48H131.736ZM129.24 43.248L131.672 39.84H133.496L130.072 44.384L129.24 43.248ZM129.912 44.432L127.288 48H125.448L129.112 43.264L129.912 44.432Z" fill="#444444"/>
<path d="M93.088 72L88.72 60.8H90.576L95.056 72H93.088ZM84.144 72L88.608 60.8H90.48L86.112 72H84.144ZM86.24 69.248V67.6H92.944V69.248H86.24ZM96.2595 75.2V64H97.9395L98.0515 65.472V75.2H96.2595ZM100.58 72.192C99.9075 72.192 99.3262 72.0213 98.8355 71.68C98.3555 71.328 97.9875 70.8373 97.7315 70.208C97.4755 69.5787 97.3475 68.8427 97.3475 68C97.3475 67.1467 97.4755 66.4107 97.7315 65.792C97.9875 65.1627 98.3555 64.6773 98.8355 64.336C99.3262 63.984 99.9075 63.808 100.58 63.808C101.305 63.808 101.934 63.984 102.468 64.336C103.012 64.6773 103.433 65.1627 103.732 65.792C104.041 66.4107 104.196 67.1467 104.196 68C104.196 68.8427 104.041 69.5787 103.732 70.208C103.433 70.8373 103.012 71.328 102.468 71.68C101.934 72.0213 101.305 72.192 100.58 72.192ZM100.132 70.56C100.558 70.56 100.937 70.4533 101.268 70.24C101.598 70.016 101.86 69.712 102.052 69.328C102.254 68.944 102.356 68.5013 102.356 68C102.356 67.4987 102.26 67.056 102.068 66.672C101.886 66.288 101.63 65.9893 101.3 65.776C100.969 65.5627 100.585 65.456 100.148 65.456C99.7422 65.456 99.3795 65.5627 99.0595 65.776C98.7395 65.9893 98.4888 66.288 98.3075 66.672C98.1368 67.056 98.0515 67.4987 98.0515 68C98.0515 68.5013 98.1368 68.944 98.3075 69.328C98.4888 69.712 98.7342 70.016 99.0435 70.24C99.3635 70.4533 99.7262 70.56 100.132 70.56ZM105.806 75.2V64H107.486L107.598 65.472V75.2H105.806ZM110.126 72.192C109.454 72.192 108.873 72.0213 108.382 71.68C107.902 71.328 107.534 70.8373 107.278 70.208C107.022 69.5787 106.894 68.8427 106.894 68C106.894 67.1467 107.022 66.4107 107.278 65.792C107.534 65.1627 107.902 64.6773 108.382 64.336C108.873 63.984 109.454 63.808 110.126 63.808C110.852 63.808 111.481 63.984 112.014 64.336C112.558 64.6773 112.98 65.1627 113.278 65.792C113.588 66.4107 113.742 67.1467 113.742 68C113.742 68.8427 113.588 69.5787 113.278 70.208C112.98 70.8373 112.558 71.328 112.014 71.68C111.481 72.0213 110.852 72.192 110.126 72.192ZM109.678 70.56C110.105 70.56 110.484 70.4533 110.814 70.24C111.145 70.016 111.406 69.712 111.598 69.328C111.801 68.944 111.902 68.5013 111.902 68C111.902 67.4987 111.806 67.056 111.614 66.672C111.433 66.288 111.177 65.9893 110.846 65.776C110.516 65.5627 110.132 65.456 109.694 65.456C109.289 65.456 108.926 65.5627 108.606 65.776C108.286 65.9893 108.036 66.288 107.854 66.672C107.684 67.056 107.598 67.4987 107.598 68C107.598 68.5013 107.684 68.944 107.854 69.328C108.036 69.712 108.281 70.016 108.59 70.24C108.91 70.4533 109.273 70.56 109.678 70.56ZM119.469 72V60.8H122.989C124.087 60.8 125.058 61.04 125.901 61.52C126.754 61.9893 127.421 62.6453 127.901 63.488C128.391 64.3307 128.637 65.3013 128.637 66.4C128.637 67.488 128.391 68.4533 127.901 69.296C127.421 70.1387 126.754 70.8 125.901 71.28C125.058 71.76 124.087 72 122.989 72H119.469ZM121.325 70.272H122.989C123.511 70.272 124.002 70.176 124.461 69.984C124.919 69.7813 125.319 69.504 125.661 69.152C126.002 68.8 126.269 68.3893 126.461 67.92C126.653 67.4507 126.749 66.944 126.749 66.4C126.749 65.856 126.653 65.3493 126.461 64.88C126.269 64.4107 126.002 64 125.661 63.648C125.319 63.296 124.919 63.024 124.461 62.832C124.002 62.6293 123.511 62.528 122.989 62.528H121.325V70.272ZM133.826 72.192C133.047 72.192 132.354 72.016 131.746 71.664C131.148 71.3013 130.674 70.8053 130.322 70.176C129.98 69.5467 129.81 68.8213 129.81 68C129.81 67.1787 129.986 66.4533 130.338 65.824C130.69 65.1947 131.17 64.704 131.778 64.352C132.396 63.9893 133.1 63.808 133.89 63.808C134.604 63.808 135.25 63.9947 135.826 64.368C136.402 64.7307 136.855 65.2587 137.186 65.952C137.527 66.6453 137.698 67.472 137.698 68.432H131.41L131.65 68.208C131.65 68.6987 131.756 69.1253 131.97 69.488C132.183 69.84 132.466 70.112 132.818 70.304C133.17 70.496 133.559 70.592 133.986 70.592C134.476 70.592 134.882 70.4853 135.202 70.272C135.522 70.048 135.772 69.76 135.954 69.408L137.538 70.08C137.314 70.5067 137.026 70.88 136.674 71.2C136.332 71.52 135.922 71.7653 135.442 71.936C134.972 72.1067 134.434 72.192 133.826 72.192ZM131.762 67.28L131.506 67.056H136.018L135.778 67.28C135.778 66.8427 135.682 66.4853 135.49 66.208C135.298 65.92 135.052 65.7067 134.754 65.568C134.466 65.4187 134.162 65.344 133.842 65.344C133.522 65.344 133.202 65.4187 132.882 65.568C132.562 65.7067 132.295 65.92 132.082 66.208C131.868 66.4853 131.762 66.8427 131.762 67.28ZM141.982 72.192C141.449 72.192 140.958 72.112 140.51 71.952C140.062 71.792 139.678 71.568 139.358 71.28C139.038 70.9813 138.793 70.6347 138.622 70.24L140.174 69.552C140.334 69.8507 140.569 70.1013 140.878 70.304C141.198 70.5067 141.55 70.608 141.934 70.608C142.35 70.608 142.681 70.5387 142.926 70.4C143.182 70.2507 143.31 70.048 143.31 69.792C143.31 69.5467 143.214 69.36 143.022 69.232C142.83 69.0933 142.558 68.9813 142.206 68.896L141.454 68.688C140.697 68.496 140.105 68.192 139.678 67.776C139.251 67.3493 139.038 66.864 139.038 66.32C139.038 65.52 139.294 64.9013 139.806 64.464C140.329 64.0267 141.075 63.808 142.046 63.808C142.537 63.808 142.985 63.8827 143.39 64.032C143.806 64.1707 144.163 64.3733 144.462 64.64C144.761 64.896 144.969 65.2 145.086 65.552L143.598 66.224C143.491 65.9573 143.289 65.7547 142.99 65.616C142.691 65.4667 142.361 65.392 141.998 65.392C141.635 65.392 141.353 65.472 141.15 65.632C140.947 65.7813 140.846 65.9947 140.846 66.272C140.846 66.432 140.937 66.5813 141.118 66.72C141.299 66.848 141.561 66.9547 141.902 67.04L142.846 67.264C143.369 67.392 143.795 67.5947 144.126 67.872C144.457 68.1387 144.702 68.4427 144.862 68.784C145.022 69.1147 145.102 69.4507 145.102 69.792C145.102 70.272 144.963 70.6933 144.686 71.056C144.419 71.4187 144.051 71.7013 143.582 71.904C143.113 72.096 142.579 72.192 141.982 72.192ZM146.635 72V64H148.411V72H146.635ZM147.531 62.48C147.243 62.48 146.993 62.3787 146.779 62.176C146.577 61.9627 146.475 61.712 146.475 61.424C146.475 61.136 146.577 60.8907 146.779 60.688C146.993 60.4853 147.243 60.384 147.531 60.384C147.819 60.384 148.065 60.4853 148.267 60.688C148.481 60.8907 148.587 61.136 148.587 61.424C148.587 61.712 148.481 61.9627 148.267 62.176C148.065 62.3787 147.819 62.48 147.531 62.48ZM153.963 75.408C153.398 75.408 152.886 75.36 152.427 75.264C151.979 75.168 151.601 75.056 151.291 74.928C150.982 74.8 150.742 74.6773 150.571 74.56L151.259 73.12C151.409 73.1947 151.606 73.2853 151.851 73.392C152.107 73.5093 152.406 73.6107 152.747 73.696C153.089 73.7813 153.473 73.824 153.899 73.824C154.358 73.824 154.769 73.728 155.131 73.536C155.494 73.3547 155.777 73.072 155.979 72.688C156.182 72.304 156.283 71.8133 156.283 71.216V64H158.075V71.168C158.075 72.0747 157.905 72.8427 157.563 73.472C157.222 74.112 156.742 74.592 156.123 74.912C155.505 75.2427 154.785 75.408 153.963 75.408ZM153.691 71.84C152.966 71.84 152.331 71.6747 151.787 71.344C151.254 71.0133 150.833 70.5547 150.523 69.968C150.225 69.3707 150.075 68.6827 150.075 67.904C150.075 67.072 150.225 66.352 150.523 65.744C150.833 65.136 151.254 64.6613 151.787 64.32C152.331 63.9787 152.966 63.808 153.691 63.808C154.342 63.808 154.907 63.9787 155.387 64.32C155.878 64.6613 156.257 65.1413 156.523 65.76C156.79 66.368 156.923 67.088 156.923 67.92C156.923 68.7093 156.79 69.3973 156.523 69.984C156.257 70.5707 155.878 71.0293 155.387 71.36C154.907 71.68 154.342 71.84 153.691 71.84ZM154.187 70.32C154.593 70.32 154.945 70.2133 155.243 70C155.553 69.7867 155.793 69.4987 155.963 69.136C156.134 68.7627 156.219 68.336 156.219 67.856C156.219 67.3653 156.134 66.9387 155.963 66.576C155.793 66.2027 155.553 65.9147 155.243 65.712C154.934 65.4987 154.577 65.392 154.171 65.392C153.745 65.392 153.366 65.4987 153.035 65.712C152.715 65.9147 152.459 66.2027 152.267 66.576C152.086 66.9387 151.995 67.3653 151.995 67.856C151.995 68.336 152.086 68.7627 152.267 69.136C152.459 69.4987 152.721 69.7867 153.051 70C153.382 70.2133 153.761 70.32 154.187 70.32ZM160.055 72V64H161.735L161.847 65.472V72H160.055ZM165.479 72V67.904H167.271V72H165.479ZM165.479 67.904C165.479 67.264 165.404 66.7733 165.255 66.432C165.116 66.08 164.913 65.8347 164.647 65.696C164.391 65.5573 164.087 65.488 163.735 65.488C163.137 65.4773 162.673 65.6747 162.343 66.08C162.012 66.4853 161.847 67.0667 161.847 67.824H161.174C161.174 66.9813 161.297 66.2613 161.543 65.664C161.788 65.056 162.14 64.5973 162.599 64.288C163.057 63.968 163.601 63.808 164.231 63.808C164.871 63.808 165.415 63.936 165.863 64.192C166.321 64.448 166.668 64.848 166.903 65.392C167.148 65.9253 167.271 66.624 167.271 67.488V67.904H165.479ZM172.654 72.192C171.875 72.192 171.182 72.016 170.574 71.664C169.976 71.3013 169.502 70.8053 169.15 70.176C168.808 69.5467 168.638 68.8213 168.638 68C168.638 67.1787 168.814 66.4533 169.166 65.824C169.518 65.1947 169.998 64.704 170.606 64.352C171.224 63.9893 171.928 63.808 172.718 63.808C173.432 63.808 174.078 63.9947 174.654 64.368C175.23 64.7307 175.683 65.2587 176.014 65.952C176.355 66.6453 176.526 67.472 176.526 68.432H170.238L170.478 68.208C170.478 68.6987 170.584 69.1253 170.798 69.488C171.011 69.84 171.294 70.112 171.646 70.304C171.998 70.496 172.387 70.592 172.814 70.592C173.304 70.592 173.71 70.4853 174.03 70.272C174.35 70.048 174.6 69.76 174.782 69.408L176.366 70.08C176.142 70.5067 175.854 70.88 175.502 71.2C175.16 71.52 174.75 71.7653 174.27 71.936C173.8 72.1067 173.262 72.192 172.654 72.192ZM170.59 67.28L170.334 67.056H174.846L174.606 67.28C174.606 66.8427 174.51 66.4853 174.318 66.208C174.126 65.92 173.88 65.7067 173.582 65.568C173.294 65.4187 172.99 65.344 172.67 65.344C172.35 65.344 172.03 65.4187 171.71 65.568C171.39 65.7067 171.123 65.92 170.91 66.208C170.696 66.4853 170.59 66.8427 170.59 67.28ZM179.082 67.744C179.082 66.88 179.248 66.1707 179.578 65.616C179.909 65.0613 180.336 64.6507 180.858 64.384C181.392 64.1067 181.946 63.968 182.522 63.968V65.68C182.032 65.68 181.568 65.7493 181.13 65.888C180.704 66.016 180.357 66.2293 180.09 66.528C179.824 66.8267 179.69 67.2213 179.69 67.712L179.082 67.744ZM177.898 72V64H179.69V72H177.898Z" fill="#1F1F1F"/>
</g>
<defs>
<filter id="filter0_d_11584_478" x="0" y="0" width="242" height="110" filterUnits="userSpaceOnUse" color-interpolation-filters="sRGB">
<feFlood flood-opacity="0" result="BackgroundImageFix"/>
<feColorMatrix in="SourceAlpha" type="matrix" values="0 0 0 0 0 0 0 0 0 0 0 0 0 0 0 0 0 0 127 0" result="hardAlpha"/>
<feOffset dy="2"/>
<feGaussianBlur stdDeviation="10"/>
<feComposite in2="hardAlpha" operator="out"/>
<feColorMatrix type="matrix" values="0 0 0 0 0.262745 0 0 0 0 0.262745 0 0 0 0 0.262745 0 0 0 0.1 0"/>
<feBlend mode="normal" in2="BackgroundImageFix" result="effect1_dropShadow_11584_478"/>
<feBlend mode="normal" in="SourceGraphic" in2="effect1_dropShadow_11584_478" result="shape"/>
</filter>
<linearGradient id="paint0_linear_11584_478" x1="53" y1="32" x2="54.75" y2="74" gradientUnits="userSpaceOnUse">
<stop stop-color="white" stop-opacity="0"/>
<stop offset="1" stop-color="white" stop-opacity="0.12"/>
</linearGradient>
<linearGradient id="paint1_linear_11584_478" x1="53.0001" y1="39.875" x2="53.0001" y2="66.125" gradientUnits="userSpaceOnUse">
<stop stop-color="white" stop-opacity="0.8"/>
<stop offset="1" stop-color="white" stop-opacity="0.5"/>
</linearGradient>
<linearGradient id="paint2_linear_11584_478" x1="53.0001" y1="39.875" x2="53.0001" y2="66.125" gradientUnits="userSpaceOnUse">
<stop stop-color="white" stop-opacity="0.8"/>
<stop offset="1" stop-color="white" stop-opacity="0.5"/>
</linearGradient>
<linearGradient id="paint3_linear_11584_478" x1="53.0007" y1="39.875" x2="53.0007" y2="66.125" gradientUnits="userSpaceOnUse">
<stop stop-color="white" stop-opacity="0.8"/>
<stop offset="1" stop-color="white" stop-opacity="0.5"/>
</linearGradient>
<linearGradient id="paint4_linear_11584_478" x1="53.0013" y1="39.875" x2="53.0013" y2="66.125" gradientUnits="userSpaceOnUse">
<stop stop-color="white" stop-opacity="0.8"/>
<stop offset="1" stop-color="white" stop-opacity="0.5"/>
</linearGradient>
<linearGradient id="paint5_linear_11584_478" x1="53.0001" y1="39.875" x2="53.0001" y2="66.125" gradientUnits="userSpaceOnUse">
<stop stop-color="white" stop-opacity="0.8"/>
<stop offset="1" stop-color="white" stop-opacity="0.5"/>
</linearGradient>
<linearGradient id="paint6_linear_11584_478" x1="53.0013" y1="39.875" x2="53.0013" y2="66.125" gradientUnits="userSpaceOnUse">
<stop stop-color="white" stop-opacity="0.8"/>
<stop offset="1" stop-color="white" stop-opacity="0.5"/>
</linearGradient>
<linearGradient id="paint7_linear_11584_478" x1="53.0007" y1="39.875" x2="53.0007" y2="66.125" gradientUnits="userSpaceOnUse">
<stop stop-color="white" stop-opacity="0.8"/>
<stop offset="1" stop-color="white" stop-opacity="0.5"/>
</linearGradient>
<linearGradient id="paint8_linear_11584_478" x1="53" y1="32" x2="53" y2="74" gradientUnits="userSpaceOnUse">
<stop stop-color="white" stop-opacity="0.12"/>
<stop offset="1" stop-color="white" stop-opacity="0"/>
</linearGradient>
<clipPath id="clip0_11584_478">
<rect width="42" height="42" fill="white" transform="translate(32 32)"/>
</clipPath>
</defs>
</svg>
