<svg width="242" height="110" viewBox="0 0 242 110" fill="none" xmlns="http://www.w3.org/2000/svg">
<g filter="url(#filter0_d_11584_444)">
<rect x="20" y="18" width="202" height="70" rx="12" fill="white"/>
<g clip-path="url(#clip0_11584_444)">
<mask id="mask0_11584_444" style="mask-type:luminance" maskUnits="userSpaceOnUse" x="32" y="32" width="42" height="42">
<path d="M63.5 32H42.5C36.701 32 32 36.701 32 42.5V63.5C32 69.299 36.701 74 42.5 74H63.5C69.299 74 74 69.299 74 63.5V42.5C74 36.701 69.299 32 63.5 32Z" fill="white"/>
</mask>
<g mask="url(#mask0_11584_444)">
<path d="M63.5 32H42.5C36.701 32 32 36.701 32 42.5V63.5C32 69.299 36.701 74 42.5 74H63.5C69.299 74 74 69.299 74 63.5V42.5C74 36.701 69.299 32 63.5 32Z" fill="#079455"/>
<path d="M32 32H74V74H32V32Z" fill="url(#paint0_linear_11584_444)"/>
<path d="M46.5469 52.3438C46.5469 48.7194 49.485 45.7812 53.1094 45.7812C56.7337 45.7812 59.6719 48.7194 59.6719 52.3438H65.5781C65.5781 45.4574 59.9957 39.875 53.1094 39.875C46.223 39.875 40.6406 45.4574 40.6406 52.3438C40.6406 59.2301 46.223 64.8125 53.1094 64.8125V58.9062C49.485 58.9062 46.5469 55.9681 46.5469 52.3438Z" fill="url(#paint1_linear_11584_444)"/>
<path opacity="0.5" d="M59.6719 52.3438C59.6719 55.9681 62.61 58.9062 66.2344 58.9062V64.8125C59.348 64.8125 53.7656 59.2301 53.7656 52.3438H59.6719Z" fill="url(#paint2_linear_11584_444)"/>
</g>
<path d="M63.5 32.875H42.5C37.1843 32.875 32.875 37.1843 32.875 42.5V63.5C32.875 68.8157 37.1843 73.125 42.5 73.125H63.5C68.8157 73.125 73.125 68.8157 73.125 63.5V42.5C73.125 37.1843 68.8157 32.875 63.5 32.875Z" stroke="url(#paint3_linear_11584_444)" stroke-width="2"/>
</g>
<path d="M90.512 48.16C89.328 48.16 88.2987 47.9093 87.424 47.408C86.5493 46.896 85.872 46.192 85.392 45.296C84.9227 44.3893 84.688 43.3547 84.688 42.192C84.688 41.04 84.928 40.0213 85.408 39.136C85.888 38.2507 86.5493 37.5627 87.392 37.072C88.2453 36.5707 89.216 36.32 90.304 36.32C91.4133 36.32 92.3893 36.5707 93.232 37.072C94.0747 37.5627 94.736 38.2507 95.216 39.136C95.7067 40.0213 95.952 41.0453 95.952 42.208C95.952 43.0293 95.8133 43.792 95.536 44.496C95.2693 45.2 94.8587 45.7973 94.304 46.288C93.76 46.7787 93.072 47.12 92.24 47.312L90.512 48.16ZM90.304 46.8C91.0933 46.8 91.776 46.6027 92.352 46.208C92.9387 45.8133 93.3973 45.2693 93.728 44.576C94.0587 43.8827 94.224 43.0827 94.224 42.176C94.224 41.3013 94.0587 40.5333 93.728 39.872C93.3973 39.2 92.9387 38.6827 92.352 38.32C91.7653 37.9467 91.0827 37.76 90.304 37.76C89.5253 37.76 88.8427 37.9467 88.256 38.32C87.68 38.6827 87.2267 39.1947 86.896 39.856C86.576 40.5173 86.416 41.2907 86.416 42.176C86.416 43.0933 86.5813 43.8987 86.912 44.592C87.2427 45.2747 87.696 45.8133 88.272 46.208C88.8587 46.6027 89.536 46.8 90.304 46.8ZM90.512 48.16L90.32 47.008L96.432 46.608V48C95.7707 48 95.2 48.0053 94.72 48.016C94.2507 48.0373 93.808 48.0587 93.392 48.08C92.9867 48.1013 92.56 48.1173 92.112 48.128C91.664 48.1493 91.1307 48.16 90.512 48.16ZM100.683 48.16C100.139 48.16 99.6594 48.048 99.2434 47.824C98.8274 47.5893 98.502 47.2693 98.2674 46.864C98.0434 46.4587 97.9314 45.9947 97.9314 45.472V39.84H99.5954V45.088C99.5954 45.6533 99.734 46.0747 100.011 46.352C100.289 46.6293 100.683 46.768 101.195 46.768C101.654 46.768 102.059 46.6613 102.411 46.448C102.774 46.2347 103.057 45.9413 103.259 45.568C103.473 45.184 103.579 44.7413 103.579 44.24L103.787 46.192C103.521 46.7893 103.11 47.2693 102.555 47.632C102.011 47.984 101.387 48.16 100.683 48.16ZM103.643 48V46.08H103.579V39.84H105.227V48H103.643ZM107.402 48V39.84H109.066V48H107.402ZM107.322 38.24V36.368H109.162V38.24H107.322ZM114.812 48.16C113.863 48.16 113.164 47.9413 112.716 47.504C112.279 47.056 112.06 46.4 112.06 45.536V37.968L113.708 37.344V45.552C113.708 45.9787 113.82 46.2933 114.044 46.496C114.268 46.6987 114.631 46.8 115.132 46.8C115.324 46.8 115.495 46.784 115.644 46.752C115.793 46.72 115.921 46.6827 116.028 46.64V47.984C115.911 48.0373 115.745 48.08 115.532 48.112C115.319 48.144 115.079 48.16 114.812 48.16ZM110.428 41.168V39.84H116.028V41.168H110.428ZM120.939 48.16C120.107 48.16 119.376 47.9787 118.747 47.616C118.117 47.2427 117.627 46.736 117.275 46.096C116.923 45.4453 116.747 44.7093 116.747 43.888C116.747 43.056 116.923 42.3253 117.275 41.696C117.637 41.0667 118.128 40.576 118.747 40.224C119.376 39.8613 120.107 39.68 120.939 39.68C121.781 39.68 122.517 39.8613 123.147 40.224C123.776 40.576 124.261 41.0667 124.603 41.696C124.955 42.3253 125.131 43.056 125.131 43.888C125.131 44.7093 124.955 45.4453 124.603 46.096C124.261 46.736 123.776 47.2427 123.147 47.616C122.517 47.9787 121.781 48.16 120.939 48.16ZM120.939 46.8C121.44 46.8 121.872 46.6773 122.235 46.432C122.608 46.1867 122.901 45.8453 123.115 45.408C123.328 44.9707 123.435 44.4587 123.435 43.872C123.435 42.9973 123.2 42.3093 122.731 41.808C122.272 41.296 121.675 41.04 120.939 41.04C120.213 41.04 119.616 41.296 119.147 41.808C118.688 42.32 118.459 43.008 118.459 43.872C118.459 44.4587 118.56 44.9707 118.763 45.408C118.976 45.8453 119.269 46.1867 119.643 46.432C120.027 46.6773 120.459 46.8 120.939 46.8ZM126.84 48V39.84H128.424V41.872H128.504V48H126.84ZM128.504 43.744L128.296 41.808C128.488 41.1147 128.819 40.5867 129.288 40.224C129.757 39.8613 130.317 39.68 130.968 39.68C131.213 39.68 131.384 39.7013 131.48 39.744V41.312C131.427 41.2907 131.352 41.28 131.256 41.28C131.16 41.2693 131.043 41.264 130.904 41.264C130.104 41.264 129.501 41.472 129.096 41.888C128.701 42.304 128.504 42.9227 128.504 43.744ZM136.47 48.16C135.638 48.16 134.907 47.9787 134.278 47.616C133.649 47.2427 133.158 46.736 132.806 46.096C132.454 45.4453 132.278 44.7093 132.278 43.888C132.278 43.056 132.454 42.3253 132.806 41.696C133.169 41.0667 133.659 40.576 134.278 40.224C134.907 39.8613 135.638 39.68 136.47 39.68C137.313 39.68 138.049 39.8613 138.678 40.224C139.307 40.576 139.793 41.0667 140.134 41.696C140.486 42.3253 140.662 43.056 140.662 43.888C140.662 44.7093 140.486 45.4453 140.134 46.096C139.793 46.736 139.307 47.2427 138.678 47.616C138.049 47.9787 137.313 48.16 136.47 48.16ZM136.47 46.8C136.971 46.8 137.403 46.6773 137.766 46.432C138.139 46.1867 138.433 45.8453 138.646 45.408C138.859 44.9707 138.966 44.4587 138.966 43.872C138.966 42.9973 138.731 42.3093 138.262 41.808C137.803 41.296 137.206 41.04 136.47 41.04C135.745 41.04 135.147 41.296 134.678 41.808C134.219 42.32 133.99 43.008 133.99 43.872C133.99 44.4587 134.091 44.9707 134.294 45.408C134.507 45.8453 134.801 46.1867 135.174 46.432C135.558 46.6773 135.99 46.8 136.47 46.8Z" fill="#444444"/>
<path d="M85.328 72V60.8H87.312L90.832 65.984L94.32 60.8H96.32V72H94.464V63.728L90.816 69.12L87.184 63.76V72H85.328ZM102.313 72.192C101.513 72.192 100.798 72.016 100.169 71.664C99.55 71.3013 99.0646 70.8053 98.7126 70.176C98.3606 69.5467 98.1846 68.8213 98.1846 68C98.1846 67.1787 98.3553 66.4533 98.6966 65.824C99.0486 65.1947 99.534 64.704 100.153 64.352C100.771 63.9893 101.481 63.808 102.281 63.808C103.081 63.808 103.79 63.9893 104.409 64.352C105.027 64.704 105.507 65.1947 105.849 65.824C106.201 66.4533 106.377 67.1787 106.377 68C106.377 68.8213 106.206 69.5467 105.865 70.176C105.523 70.8053 105.043 71.3013 104.425 71.664C103.806 72.016 103.102 72.192 102.313 72.192ZM102.313 70.544C102.75 70.544 103.139 70.4373 103.481 70.224C103.822 70 104.089 69.7013 104.281 69.328C104.473 68.944 104.569 68.5013 104.569 68C104.569 67.4987 104.467 67.0613 104.265 66.688C104.073 66.304 103.806 66.0053 103.465 65.792C103.123 65.568 102.729 65.456 102.281 65.456C101.833 65.456 101.438 65.5627 101.097 65.776C100.755 65.9893 100.489 66.288 100.297 66.672C100.105 67.056 100.009 67.4987 100.009 68C100.009 68.5013 100.105 68.944 100.297 69.328C100.499 69.7013 100.771 70 101.113 70.224C101.465 70.4373 101.865 70.544 102.313 70.544ZM111.114 72.192C110.271 72.192 109.626 71.984 109.178 71.568C108.74 71.1413 108.522 70.5333 108.522 69.744V61.504H110.298V69.408C110.298 69.7813 110.383 70.064 110.554 70.256C110.735 70.448 110.996 70.544 111.338 70.544C111.444 70.544 111.562 70.5227 111.69 70.48C111.818 70.4373 111.962 70.3573 112.122 70.24L112.778 71.6C112.5 71.792 112.223 71.936 111.946 72.032C111.668 72.1387 111.391 72.192 111.114 72.192ZM107.194 65.536V64H112.458V65.536H107.194ZM114.323 72V64H116.099V72H114.323ZM115.219 62.48C114.931 62.48 114.68 62.3787 114.467 62.176C114.264 61.9627 114.163 61.712 114.163 61.424C114.163 61.136 114.264 60.8907 114.467 60.688C114.68 60.4853 114.931 60.384 115.219 60.384C115.507 60.384 115.752 60.4853 115.955 60.688C116.168 60.8907 116.275 61.136 116.275 61.424C116.275 61.712 116.168 61.9627 115.955 62.176C115.752 62.3787 115.507 62.48 115.219 62.48ZM121.891 72.192C121.091 72.192 120.376 72.016 119.747 71.664C119.128 71.3013 118.643 70.8053 118.291 70.176C117.939 69.5467 117.763 68.8213 117.763 68C117.763 67.1787 117.933 66.4533 118.275 65.824C118.627 65.1947 119.112 64.704 119.731 64.352C120.349 63.9893 121.059 63.808 121.859 63.808C122.659 63.808 123.368 63.9893 123.987 64.352C124.605 64.704 125.085 65.1947 125.427 65.824C125.779 66.4533 125.955 67.1787 125.955 68C125.955 68.8213 125.784 69.5467 125.443 70.176C125.101 70.8053 124.621 71.3013 124.003 71.664C123.384 72.016 122.68 72.192 121.891 72.192ZM121.891 70.544C122.328 70.544 122.717 70.4373 123.059 70.224C123.4 70 123.667 69.7013 123.859 69.328C124.051 68.944 124.147 68.5013 124.147 68C124.147 67.4987 124.045 67.0613 123.843 66.688C123.651 66.304 123.384 66.0053 123.043 65.792C122.701 65.568 122.307 65.456 121.859 65.456C121.411 65.456 121.016 65.5627 120.675 65.776C120.333 65.9893 120.067 66.288 119.875 66.672C119.683 67.056 119.587 67.4987 119.587 68C119.587 68.5013 119.683 68.944 119.875 69.328C120.077 69.7013 120.349 70 120.691 70.224C121.043 70.4373 121.443 70.544 121.891 70.544ZM127.508 72V64H129.188L129.3 65.472V72H127.508ZM132.932 72V67.904H134.724V72H132.932ZM132.932 67.904C132.932 67.264 132.857 66.7733 132.708 66.432C132.569 66.08 132.366 65.8347 132.1 65.696C131.844 65.5573 131.54 65.488 131.188 65.488C130.59 65.4773 130.126 65.6747 129.796 66.08C129.465 66.4853 129.3 67.0667 129.3 67.824H128.628C128.628 66.9813 128.75 66.2613 128.996 65.664C129.241 65.056 129.593 64.5973 130.052 64.288C130.51 63.968 131.054 63.808 131.684 63.808C132.324 63.808 132.868 63.936 133.316 64.192C133.774 64.448 134.121 64.848 134.356 65.392C134.601 65.9253 134.724 66.624 134.724 67.488V67.904H132.932ZM140.734 72V60.8H144.254C145.353 60.8 146.324 61.04 147.166 61.52C148.02 61.9893 148.686 62.6453 149.166 63.488C149.657 64.3307 149.902 65.3013 149.902 66.4C149.902 67.488 149.657 68.4533 149.166 69.296C148.686 70.1387 148.02 70.8 147.166 71.28C146.324 71.76 145.353 72 144.254 72H140.734ZM142.59 70.272H144.254C144.777 70.272 145.268 70.176 145.726 69.984C146.185 69.7813 146.585 69.504 146.926 69.152C147.268 68.8 147.534 68.3893 147.726 67.92C147.918 67.4507 148.014 66.944 148.014 66.4C148.014 65.856 147.918 65.3493 147.726 64.88C147.534 64.4107 147.268 64 146.926 63.648C146.585 63.296 146.185 63.024 145.726 62.832C145.268 62.6293 144.777 62.528 144.254 62.528H142.59V70.272ZM155.091 72.192C154.313 72.192 153.619 72.016 153.011 71.664C152.414 71.3013 151.939 70.8053 151.587 70.176C151.246 69.5467 151.075 68.8213 151.075 68C151.075 67.1787 151.251 66.4533 151.603 65.824C151.955 65.1947 152.435 64.704 153.043 64.352C153.662 63.9893 154.366 63.808 155.155 63.808C155.87 63.808 156.515 63.9947 157.091 64.368C157.667 64.7307 158.121 65.2587 158.451 65.952C158.793 66.6453 158.963 67.472 158.963 68.432H152.675L152.915 68.208C152.915 68.6987 153.022 69.1253 153.235 69.488C153.449 69.84 153.731 70.112 154.083 70.304C154.435 70.496 154.825 70.592 155.251 70.592C155.742 70.592 156.147 70.4853 156.467 70.272C156.787 70.048 157.038 69.76 157.219 69.408L158.803 70.08C158.579 70.5067 158.291 70.88 157.939 71.2C157.598 71.52 157.187 71.7653 156.707 71.936C156.238 72.1067 155.699 72.192 155.091 72.192ZM153.027 67.28L152.771 67.056H157.283L157.043 67.28C157.043 66.8427 156.947 66.4853 156.755 66.208C156.563 65.92 156.318 65.7067 156.019 65.568C155.731 65.4187 155.427 65.344 155.107 65.344C154.787 65.344 154.467 65.4187 154.147 65.568C153.827 65.7067 153.561 65.92 153.347 66.208C153.134 66.4853 153.027 66.8427 153.027 67.28ZM163.248 72.192C162.714 72.192 162.224 72.112 161.776 71.952C161.328 71.792 160.944 71.568 160.624 71.28C160.304 70.9813 160.058 70.6347 159.888 70.24L161.44 69.552C161.6 69.8507 161.834 70.1013 162.144 70.304C162.464 70.5067 162.816 70.608 163.2 70.608C163.616 70.608 163.946 70.5387 164.192 70.4C164.448 70.2507 164.576 70.048 164.576 69.792C164.576 69.5467 164.48 69.36 164.288 69.232C164.096 69.0933 163.824 68.9813 163.472 68.896L162.72 68.688C161.962 68.496 161.37 68.192 160.944 67.776C160.517 67.3493 160.304 66.864 160.304 66.32C160.304 65.52 160.56 64.9013 161.072 64.464C161.594 64.0267 162.341 63.808 163.312 63.808C163.802 63.808 164.25 63.8827 164.656 64.032C165.072 64.1707 165.429 64.3733 165.728 64.64C166.026 64.896 166.234 65.2 166.352 65.552L164.864 66.224C164.757 65.9573 164.554 65.7547 164.256 65.616C163.957 65.4667 163.626 65.392 163.264 65.392C162.901 65.392 162.618 65.472 162.416 65.632C162.213 65.7813 162.112 65.9947 162.112 66.272C162.112 66.432 162.202 66.5813 162.384 66.72C162.565 66.848 162.826 66.9547 163.168 67.04L164.112 67.264C164.634 67.392 165.061 67.5947 165.392 67.872C165.722 68.1387 165.968 68.4427 166.128 68.784C166.288 69.1147 166.368 69.4507 166.368 69.792C166.368 70.272 166.229 70.6933 165.952 71.056C165.685 71.4187 165.317 71.7013 164.848 71.904C164.378 72.096 163.845 72.192 163.248 72.192ZM167.901 72V64H169.677V72H167.901ZM168.797 62.48C168.509 62.48 168.258 62.3787 168.045 62.176C167.842 61.9627 167.741 61.712 167.741 61.424C167.741 61.136 167.842 60.8907 168.045 60.688C168.258 60.4853 168.509 60.384 168.797 60.384C169.085 60.384 169.33 60.4853 169.533 60.688C169.746 60.8907 169.853 61.136 169.853 61.424C169.853 61.712 169.746 61.9627 169.533 62.176C169.33 62.3787 169.085 62.48 168.797 62.48ZM175.229 75.408C174.664 75.408 174.152 75.36 173.693 75.264C173.245 75.168 172.866 75.056 172.557 74.928C172.248 74.8 172.008 74.6773 171.837 74.56L172.525 73.12C172.674 73.1947 172.872 73.2853 173.117 73.392C173.373 73.5093 173.672 73.6107 174.013 73.696C174.354 73.7813 174.738 73.824 175.165 73.824C175.624 73.824 176.034 73.728 176.397 73.536C176.76 73.3547 177.042 73.072 177.245 72.688C177.448 72.304 177.549 71.8133 177.549 71.216V64H179.341V71.168C179.341 72.0747 179.17 72.8427 178.829 73.472C178.488 74.112 178.008 74.592 177.389 74.912C176.77 75.2427 176.05 75.408 175.229 75.408ZM174.957 71.84C174.232 71.84 173.597 71.6747 173.053 71.344C172.52 71.0133 172.098 70.5547 171.789 69.968C171.49 69.3707 171.341 68.6827 171.341 67.904C171.341 67.072 171.49 66.352 171.789 65.744C172.098 65.136 172.52 64.6613 173.053 64.32C173.597 63.9787 174.232 63.808 174.957 63.808C175.608 63.808 176.173 63.9787 176.653 64.32C177.144 64.6613 177.522 65.1413 177.789 65.76C178.056 66.368 178.189 67.088 178.189 67.92C178.189 68.7093 178.056 69.3973 177.789 69.984C177.522 70.5707 177.144 71.0293 176.653 71.36C176.173 71.68 175.608 71.84 174.957 71.84ZM175.453 70.32C175.858 70.32 176.21 70.2133 176.509 70C176.818 69.7867 177.058 69.4987 177.229 69.136C177.4 68.7627 177.485 68.336 177.485 67.856C177.485 67.3653 177.4 66.9387 177.229 66.576C177.058 66.2027 176.818 65.9147 176.509 65.712C176.2 65.4987 175.842 65.392 175.437 65.392C175.01 65.392 174.632 65.4987 174.301 65.712C173.981 65.9147 173.725 66.2027 173.533 66.576C173.352 66.9387 173.261 67.3653 173.261 67.856C173.261 68.336 173.352 68.7627 173.533 69.136C173.725 69.4987 173.986 69.7867 174.317 70C174.648 70.2133 175.026 70.32 175.453 70.32ZM181.32 72V64H183L183.112 65.472V72H181.32ZM186.744 72V67.904H188.536V72H186.744ZM186.744 67.904C186.744 67.264 186.669 66.7733 186.52 66.432C186.381 66.08 186.179 65.8347 185.912 65.696C185.656 65.5573 185.352 65.488 185 65.488C184.403 65.4773 183.939 65.6747 183.608 66.08C183.277 66.4853 183.112 67.0667 183.112 67.824H182.44C182.44 66.9813 182.563 66.2613 182.808 65.664C183.053 65.056 183.405 64.5973 183.864 64.288C184.323 63.968 184.867 63.808 185.496 63.808C186.136 63.808 186.68 63.936 187.128 64.192C187.587 64.448 187.933 64.848 188.168 65.392C188.413 65.9253 188.536 66.624 188.536 67.488V67.904H186.744ZM193.919 72.192C193.141 72.192 192.447 72.016 191.839 71.664C191.242 71.3013 190.767 70.8053 190.415 70.176C190.074 69.5467 189.903 68.8213 189.903 68C189.903 67.1787 190.079 66.4533 190.431 65.824C190.783 65.1947 191.263 64.704 191.871 64.352C192.49 63.9893 193.194 63.808 193.983 63.808C194.698 63.808 195.343 63.9947 195.919 64.368C196.495 64.7307 196.949 65.2587 197.279 65.952C197.621 66.6453 197.791 67.472 197.791 68.432H191.503L191.743 68.208C191.743 68.6987 191.85 69.1253 192.063 69.488C192.277 69.84 192.559 70.112 192.911 70.304C193.263 70.496 193.653 70.592 194.079 70.592C194.57 70.592 194.975 70.4853 195.295 70.272C195.615 70.048 195.866 69.76 196.047 69.408L197.631 70.08C197.407 70.5067 197.119 70.88 196.767 71.2C196.426 71.52 196.015 71.7653 195.535 71.936C195.066 72.1067 194.527 72.192 193.919 72.192ZM191.855 67.28L191.599 67.056H196.111L195.871 67.28C195.871 66.8427 195.775 66.4853 195.583 66.208C195.391 65.92 195.146 65.7067 194.847 65.568C194.559 65.4187 194.255 65.344 193.935 65.344C193.615 65.344 193.295 65.4187 192.975 65.568C192.655 65.7067 192.389 65.92 192.175 66.208C191.962 66.4853 191.855 66.8427 191.855 67.28ZM200.348 67.744C200.348 66.88 200.513 66.1707 200.844 65.616C201.175 65.0613 201.601 64.6507 202.124 64.384C202.657 64.1067 203.212 63.968 203.788 63.968V65.68C203.297 65.68 202.833 65.7493 202.396 65.888C201.969 66.016 201.623 66.2293 201.356 66.528C201.089 66.8267 200.956 67.2213 200.956 67.712L200.348 67.744ZM199.164 72V64H200.956V72H199.164Z" fill="#1F1F1F"/>
</g>
<defs>
<filter id="filter0_d_11584_444" x="0" y="0" width="242" height="110" filterUnits="userSpaceOnUse" color-interpolation-filters="sRGB">
<feFlood flood-opacity="0" result="BackgroundImageFix"/>
<feColorMatrix in="SourceAlpha" type="matrix" values="0 0 0 0 0 0 0 0 0 0 0 0 0 0 0 0 0 0 127 0" result="hardAlpha"/>
<feOffset dy="2"/>
<feGaussianBlur stdDeviation="10"/>
<feComposite in2="hardAlpha" operator="out"/>
<feColorMatrix type="matrix" values="0 0 0 0 0.262745 0 0 0 0 0.262745 0 0 0 0 0.262745 0 0 0 0.1 0"/>
<feBlend mode="normal" in2="BackgroundImageFix" result="effect1_dropShadow_11584_444"/>
<feBlend mode="normal" in="SourceGraphic" in2="effect1_dropShadow_11584_444" result="shape"/>
</filter>
<linearGradient id="paint0_linear_11584_444" x1="53" y1="32" x2="54.75" y2="74" gradientUnits="userSpaceOnUse">
<stop stop-color="white" stop-opacity="0"/>
<stop offset="1" stop-color="white" stop-opacity="0.12"/>
</linearGradient>
<linearGradient id="paint1_linear_11584_444" x1="53.1094" y1="39.875" x2="53.1094" y2="64.8125" gradientUnits="userSpaceOnUse">
<stop stop-color="white" stop-opacity="0.8"/>
<stop offset="1" stop-color="white" stop-opacity="0.5"/>
</linearGradient>
<linearGradient id="paint2_linear_11584_444" x1="60" y1="52.3438" x2="60" y2="64.8125" gradientUnits="userSpaceOnUse">
<stop stop-color="white" stop-opacity="0.8"/>
<stop offset="1" stop-color="white" stop-opacity="0.5"/>
</linearGradient>
<linearGradient id="paint3_linear_11584_444" x1="53" y1="32" x2="53" y2="74" gradientUnits="userSpaceOnUse">
<stop stop-color="white" stop-opacity="0.12"/>
<stop offset="1" stop-color="white" stop-opacity="0"/>
</linearGradient>
<clipPath id="clip0_11584_444">
<rect width="42" height="42" fill="white" transform="translate(32 32)"/>
</clipPath>
</defs>
</svg>
