<svg width="242" height="110" viewBox="0 0 242 110" fill="none" xmlns="http://www.w3.org/2000/svg">
<g filter="url(#filter0_d_11584_427)">
<rect x="20" y="18" width="202" height="70" rx="12" fill="white"/>
<g clip-path="url(#clip0_11584_427)">
<mask id="mask0_11584_427" style="mask-type:luminance" maskUnits="userSpaceOnUse" x="32" y="32" width="42" height="42">
<path d="M63.5 32H42.5C36.701 32 32 36.701 32 42.5V63.5C32 69.299 36.701 74 42.5 74H63.5C69.299 74 74 69.299 74 63.5V42.5C74 36.701 69.299 32 63.5 32Z" fill="white"/>
</mask>
<g mask="url(#mask0_11584_427)">
<path d="M63.5 32H42.5C36.701 32 32 36.701 32 42.5V63.5C32 69.299 36.701 74 42.5 74H63.5C69.299 74 74 69.299 74 63.5V42.5C74 36.701 69.299 32 63.5 32Z" fill="#EAAA08"/>
<path d="M32 32H74V74H32V32Z" fill="url(#paint0_linear_11584_427)"/>
<path d="M56.4982 49.5V42.5H42.4982V49.5H56.4982Z" fill="url(#paint1_linear_11584_427)"/>
<path d="M56.4971 56.4999C52.6311 56.4999 49.4971 59.6339 49.4971 63.4999L42.4982 63.5002V63.3196C42.5945 55.7007 48.7766 49.5483 56.4071 49.5002L63.4974 49.5005V63.5005H56.4974L56.4971 56.4999Z" fill="url(#paint2_linear_11584_427)"/>
</g>
<path d="M63.5 32.875H42.5C37.1843 32.875 32.875 37.1843 32.875 42.5V63.5C32.875 68.8157 37.1843 73.125 42.5 73.125H63.5C68.8157 73.125 73.125 68.8157 73.125 63.5V42.5C73.125 37.1843 68.8157 32.875 63.5 32.875Z" stroke="url(#paint3_linear_11584_427)" stroke-width="2"/>
</g>
<path d="M88.4 48V37.872H84.512V36.48H93.984V37.872H90.096V48H88.4ZM97.4224 48.16C96.601 48.16 95.8757 47.9787 95.2464 47.616C94.6277 47.2533 94.1424 46.752 93.7904 46.112C93.4384 45.472 93.2624 44.736 93.2624 43.904C93.2624 43.0613 93.433 42.3253 93.7744 41.696C94.1264 41.056 94.617 40.56 95.2464 40.208C95.8757 39.856 96.5957 39.68 97.4064 39.68C98.1957 39.68 98.8784 39.8507 99.4544 40.192C100.041 40.5227 100.489 40.9867 100.798 41.584C101.118 42.1813 101.278 42.8907 101.278 43.712C101.278 43.84 101.273 43.9627 101.262 44.08C101.262 44.1867 101.252 44.2987 101.23 44.416H94.3824V43.168H100.062L99.6464 43.664C99.6464 42.7893 99.449 42.1227 99.0544 41.664C98.6597 41.2053 98.1104 40.976 97.4064 40.976C96.649 40.976 96.0464 41.2373 95.5984 41.76C95.161 42.272 94.9424 42.9867 94.9424 43.904C94.9424 44.832 95.161 45.5573 95.5984 46.08C96.0464 46.6027 96.665 46.864 97.4544 46.864C97.9344 46.864 98.3504 46.768 98.7024 46.576C99.0544 46.3733 99.3157 46.08 99.4864 45.696H101.054C100.788 46.464 100.334 47.0667 99.6944 47.504C99.065 47.9413 98.3077 48.16 97.4224 48.16ZM102.981 48V39.84H104.565V41.76H104.645V48H102.981ZM108.773 48V42.752C108.773 42.1867 108.629 41.7653 108.341 41.488C108.063 41.2107 107.647 41.072 107.093 41.072C106.613 41.072 106.186 41.1787 105.812 41.392C105.45 41.6053 105.162 41.8987 104.949 42.272C104.746 42.6453 104.645 43.088 104.645 43.6L104.437 41.648C104.703 41.04 105.114 40.56 105.669 40.208C106.223 39.856 106.869 39.68 107.605 39.68C108.479 39.68 109.167 39.9253 109.669 40.416C110.17 40.9067 110.421 41.5573 110.421 42.368V48H108.773ZM111.727 51.44C111.535 51.44 111.369 51.4293 111.231 51.408C111.092 51.3867 110.969 51.3547 110.863 51.312V50.032C110.937 50.0533 111.039 50.0747 111.167 50.096C111.284 50.1173 111.407 50.128 111.535 50.128C111.908 50.128 112.169 50.0427 112.319 49.872C112.479 49.712 112.559 49.4667 112.559 49.136V39.84H114.223V49.184C114.223 49.8987 114.02 50.4533 113.615 50.848C113.22 51.2427 112.591 51.44 111.727 51.44ZM112.479 38.24V36.368H114.319V38.24H112.479ZM120.047 48.16C119.226 48.16 118.501 47.9787 117.871 47.616C117.253 47.2533 116.767 46.752 116.415 46.112C116.063 45.472 115.887 44.736 115.887 43.904C115.887 43.0613 116.058 42.3253 116.399 41.696C116.751 41.056 117.242 40.56 117.871 40.208C118.501 39.856 119.221 39.68 120.031 39.68C120.821 39.68 121.503 39.8507 122.079 40.192C122.666 40.5227 123.114 40.9867 123.423 41.584C123.743 42.1813 123.903 42.8907 123.903 43.712C123.903 43.84 123.898 43.9627 123.887 44.08C123.887 44.1867 123.877 44.2987 123.855 44.416H117.007V43.168H122.687L122.271 43.664C122.271 42.7893 122.074 42.1227 121.679 41.664C121.285 41.2053 120.735 40.976 120.031 40.976C119.274 40.976 118.671 41.2373 118.223 41.76C117.786 42.272 117.567 42.9867 117.567 43.904C117.567 44.832 117.786 45.5573 118.223 46.08C118.671 46.6027 119.29 46.864 120.079 46.864C120.559 46.864 120.975 46.768 121.327 46.576C121.679 46.3733 121.941 46.08 122.111 45.696H123.679C123.413 46.464 122.959 47.0667 122.319 47.504C121.69 47.9413 120.933 48.16 120.047 48.16ZM125.606 48V39.84H127.19V41.76H127.27V48H125.606ZM131.398 48V42.752C131.398 42.1867 131.254 41.7653 130.966 41.488C130.688 41.2107 130.272 41.072 129.718 41.072C129.238 41.072 128.811 41.1787 128.438 41.392C128.075 41.6053 127.787 41.8987 127.574 42.272C127.371 42.6453 127.27 43.088 127.27 43.6L127.062 41.648C127.328 41.04 127.739 40.56 128.294 40.208C128.848 39.856 129.494 39.68 130.23 39.68C131.104 39.68 131.792 39.9253 132.294 40.416C132.795 40.9067 133.046 41.5573 133.046 42.368V48H131.398ZM140.596 48L137.988 44.272L134.676 39.84H136.564L138.948 43.248L142.484 48H140.596ZM138.1 43.248L140.532 39.84H142.356L138.932 44.384L138.1 43.248ZM138.772 44.432L136.148 48H134.308L137.972 43.264L138.772 44.432Z" fill="#444444"/>
<path d="M89.6 72.224C88.7147 72.224 87.936 72.048 87.264 71.696C86.6027 71.3333 86.0853 70.8267 85.712 70.176C85.3493 69.5253 85.168 68.768 85.168 67.904V60.8H87.024V67.904C87.024 68.4267 87.1307 68.8853 87.344 69.28C87.568 69.664 87.8773 69.968 88.272 70.192C88.6667 70.4053 89.12 70.512 89.632 70.512C90.1547 70.512 90.6133 70.4053 91.008 70.192C91.4133 69.968 91.7227 69.664 91.936 69.28C92.1493 68.8853 92.256 68.4267 92.256 67.904V60.8H94.112V67.904C94.112 68.768 93.9253 69.5253 93.552 70.176C93.1893 70.8267 92.6667 71.3333 91.984 71.696C91.312 72.048 90.5173 72.224 89.6 72.224ZM96.6093 72V60.8H98.4653V72H96.6093ZM104.984 72V60.8H108.504C109.603 60.8 110.574 61.04 111.416 61.52C112.27 61.9893 112.936 62.6453 113.416 63.488C113.907 64.3307 114.152 65.3013 114.152 66.4C114.152 67.488 113.907 68.4533 113.416 69.296C112.936 70.1387 112.27 70.8 111.416 71.28C110.574 71.76 109.603 72 108.504 72H104.984ZM106.84 70.272H108.504C109.027 70.272 109.518 70.176 109.976 69.984C110.435 69.7813 110.835 69.504 111.176 69.152C111.518 68.8 111.784 68.3893 111.976 67.92C112.168 67.4507 112.264 66.944 112.264 66.4C112.264 65.856 112.168 65.3493 111.976 64.88C111.784 64.4107 111.518 64 111.176 63.648C110.835 63.296 110.435 63.024 109.976 62.832C109.518 62.6293 109.027 62.528 108.504 62.528H106.84V70.272ZM119.341 72.192C118.563 72.192 117.869 72.016 117.261 71.664C116.664 71.3013 116.189 70.8053 115.837 70.176C115.496 69.5467 115.325 68.8213 115.325 68C115.325 67.1787 115.501 66.4533 115.853 65.824C116.205 65.1947 116.685 64.704 117.293 64.352C117.912 63.9893 118.616 63.808 119.405 63.808C120.12 63.808 120.765 63.9947 121.341 64.368C121.917 64.7307 122.371 65.2587 122.701 65.952C123.043 66.6453 123.213 67.472 123.213 68.432H116.925L117.165 68.208C117.165 68.6987 117.272 69.1253 117.485 69.488C117.699 69.84 117.981 70.112 118.333 70.304C118.685 70.496 119.075 70.592 119.501 70.592C119.992 70.592 120.397 70.4853 120.717 70.272C121.037 70.048 121.288 69.76 121.469 69.408L123.053 70.08C122.829 70.5067 122.541 70.88 122.189 71.2C121.848 71.52 121.437 71.7653 120.957 71.936C120.488 72.1067 119.949 72.192 119.341 72.192ZM117.277 67.28L117.021 67.056H121.533L121.293 67.28C121.293 66.8427 121.197 66.4853 121.005 66.208C120.813 65.92 120.568 65.7067 120.269 65.568C119.981 65.4187 119.677 65.344 119.357 65.344C119.037 65.344 118.717 65.4187 118.397 65.568C118.077 65.7067 117.811 65.92 117.597 66.208C117.384 66.4853 117.277 66.8427 117.277 67.28ZM127.498 72.192C126.964 72.192 126.474 72.112 126.026 71.952C125.578 71.792 125.194 71.568 124.874 71.28C124.554 70.9813 124.308 70.6347 124.138 70.24L125.69 69.552C125.85 69.8507 126.084 70.1013 126.394 70.304C126.714 70.5067 127.066 70.608 127.45 70.608C127.866 70.608 128.196 70.5387 128.442 70.4C128.698 70.2507 128.826 70.048 128.826 69.792C128.826 69.5467 128.73 69.36 128.538 69.232C128.346 69.0933 128.074 68.9813 127.722 68.896L126.97 68.688C126.212 68.496 125.62 68.192 125.194 67.776C124.767 67.3493 124.554 66.864 124.554 66.32C124.554 65.52 124.81 64.9013 125.322 64.464C125.844 64.0267 126.591 63.808 127.562 63.808C128.052 63.808 128.5 63.8827 128.906 64.032C129.322 64.1707 129.679 64.3733 129.978 64.64C130.276 64.896 130.484 65.2 130.602 65.552L129.114 66.224C129.007 65.9573 128.804 65.7547 128.506 65.616C128.207 65.4667 127.876 65.392 127.514 65.392C127.151 65.392 126.868 65.472 126.666 65.632C126.463 65.7813 126.362 65.9947 126.362 66.272C126.362 66.432 126.452 66.5813 126.634 66.72C126.815 66.848 127.076 66.9547 127.418 67.04L128.362 67.264C128.884 67.392 129.311 67.5947 129.642 67.872C129.972 68.1387 130.218 68.4427 130.378 68.784C130.538 69.1147 130.618 69.4507 130.618 69.792C130.618 70.272 130.479 70.6933 130.202 71.056C129.935 71.4187 129.567 71.7013 129.098 71.904C128.628 72.096 128.095 72.192 127.498 72.192ZM132.151 72V64H133.927V72H132.151ZM133.047 62.48C132.759 62.48 132.508 62.3787 132.295 62.176C132.092 61.9627 131.991 61.712 131.991 61.424C131.991 61.136 132.092 60.8907 132.295 60.688C132.508 60.4853 132.759 60.384 133.047 60.384C133.335 60.384 133.58 60.4853 133.783 60.688C133.996 60.8907 134.103 61.136 134.103 61.424C134.103 61.712 133.996 61.9627 133.783 62.176C133.58 62.3787 133.335 62.48 133.047 62.48ZM139.479 75.408C138.914 75.408 138.402 75.36 137.943 75.264C137.495 75.168 137.116 75.056 136.807 74.928C136.498 74.8 136.258 74.6773 136.087 74.56L136.775 73.12C136.924 73.1947 137.122 73.2853 137.367 73.392C137.623 73.5093 137.922 73.6107 138.263 73.696C138.604 73.7813 138.988 73.824 139.415 73.824C139.874 73.824 140.284 73.728 140.647 73.536C141.01 73.3547 141.292 73.072 141.495 72.688C141.698 72.304 141.799 71.8133 141.799 71.216V64H143.591V71.168C143.591 72.0747 143.42 72.8427 143.079 73.472C142.738 74.112 142.258 74.592 141.639 74.912C141.02 75.2427 140.3 75.408 139.479 75.408ZM139.207 71.84C138.482 71.84 137.847 71.6747 137.303 71.344C136.77 71.0133 136.348 70.5547 136.039 69.968C135.74 69.3707 135.591 68.6827 135.591 67.904C135.591 67.072 135.74 66.352 136.039 65.744C136.348 65.136 136.77 64.6613 137.303 64.32C137.847 63.9787 138.482 63.808 139.207 63.808C139.858 63.808 140.423 63.9787 140.903 64.32C141.394 64.6613 141.772 65.1413 142.039 65.76C142.306 66.368 142.439 67.088 142.439 67.92C142.439 68.7093 142.306 69.3973 142.039 69.984C141.772 70.5707 141.394 71.0293 140.903 71.36C140.423 71.68 139.858 71.84 139.207 71.84ZM139.703 70.32C140.108 70.32 140.46 70.2133 140.759 70C141.068 69.7867 141.308 69.4987 141.479 69.136C141.65 68.7627 141.735 68.336 141.735 67.856C141.735 67.3653 141.65 66.9387 141.479 66.576C141.308 66.2027 141.068 65.9147 140.759 65.712C140.45 65.4987 140.092 65.392 139.687 65.392C139.26 65.392 138.882 65.4987 138.551 65.712C138.231 65.9147 137.975 66.2027 137.783 66.576C137.602 66.9387 137.511 67.3653 137.511 67.856C137.511 68.336 137.602 68.7627 137.783 69.136C137.975 69.4987 138.236 69.7867 138.567 70C138.898 70.2133 139.276 70.32 139.703 70.32ZM145.57 72V64H147.25L147.362 65.472V72H145.57ZM150.994 72V67.904H152.786V72H150.994ZM150.994 67.904C150.994 67.264 150.919 66.7733 150.77 66.432C150.631 66.08 150.429 65.8347 150.162 65.696C149.906 65.5573 149.602 65.488 149.25 65.488C148.653 65.4773 148.189 65.6747 147.858 66.08C147.527 66.4853 147.362 67.0667 147.362 67.824H146.69C146.69 66.9813 146.813 66.2613 147.058 65.664C147.303 65.056 147.655 64.5973 148.114 64.288C148.573 63.968 149.117 63.808 149.746 63.808C150.386 63.808 150.93 63.936 151.378 64.192C151.837 64.448 152.183 64.848 152.418 65.392C152.663 65.9253 152.786 66.624 152.786 67.488V67.904H150.994ZM158.169 72.192C157.391 72.192 156.697 72.016 156.089 71.664C155.492 71.3013 155.017 70.8053 154.665 70.176C154.324 69.5467 154.153 68.8213 154.153 68C154.153 67.1787 154.329 66.4533 154.681 65.824C155.033 65.1947 155.513 64.704 156.121 64.352C156.74 63.9893 157.444 63.808 158.233 63.808C158.948 63.808 159.593 63.9947 160.169 64.368C160.745 64.7307 161.199 65.2587 161.529 65.952C161.871 66.6453 162.041 67.472 162.041 68.432H155.753L155.993 68.208C155.993 68.6987 156.1 69.1253 156.313 69.488C156.527 69.84 156.809 70.112 157.161 70.304C157.513 70.496 157.903 70.592 158.329 70.592C158.82 70.592 159.225 70.4853 159.545 70.272C159.865 70.048 160.116 69.76 160.297 69.408L161.881 70.08C161.657 70.5067 161.369 70.88 161.017 71.2C160.676 71.52 160.265 71.7653 159.785 71.936C159.316 72.1067 158.777 72.192 158.169 72.192ZM156.105 67.28L155.849 67.056H160.361L160.121 67.28C160.121 66.8427 160.025 66.4853 159.833 66.208C159.641 65.92 159.396 65.7067 159.097 65.568C158.809 65.4187 158.505 65.344 158.185 65.344C157.865 65.344 157.545 65.4187 157.225 65.568C156.905 65.7067 156.639 65.92 156.425 66.208C156.212 66.4853 156.105 66.8427 156.105 67.28ZM164.598 67.744C164.598 66.88 164.763 66.1707 165.094 65.616C165.425 65.0613 165.851 64.6507 166.374 64.384C166.907 64.1067 167.462 63.968 168.038 63.968V65.68C167.547 65.68 167.083 65.7493 166.646 65.888C166.219 66.016 165.873 66.2293 165.606 66.528C165.339 66.8267 165.206 67.2213 165.206 67.712L164.598 67.744ZM163.414 72V64H165.206V72H163.414Z" fill="#1F1F1F"/>
</g>
<defs>
<filter id="filter0_d_11584_427" x="0" y="0" width="242" height="110" filterUnits="userSpaceOnUse" color-interpolation-filters="sRGB">
<feFlood flood-opacity="0" result="BackgroundImageFix"/>
<feColorMatrix in="SourceAlpha" type="matrix" values="0 0 0 0 0 0 0 0 0 0 0 0 0 0 0 0 0 0 127 0" result="hardAlpha"/>
<feOffset dy="2"/>
<feGaussianBlur stdDeviation="10"/>
<feComposite in2="hardAlpha" operator="out"/>
<feColorMatrix type="matrix" values="0 0 0 0 0.262745 0 0 0 0 0.262745 0 0 0 0 0.262745 0 0 0 0.1 0"/>
<feBlend mode="normal" in2="BackgroundImageFix" result="effect1_dropShadow_11584_427"/>
<feBlend mode="normal" in="SourceGraphic" in2="effect1_dropShadow_11584_427" result="shape"/>
</filter>
<linearGradient id="paint0_linear_11584_427" x1="53" y1="32" x2="54.75" y2="74" gradientUnits="userSpaceOnUse">
<stop stop-color="white" stop-opacity="0"/>
<stop offset="1" stop-color="white" stop-opacity="0.12"/>
</linearGradient>
<linearGradient id="paint1_linear_11584_427" x1="52.9982" y1="42.5" x2="52.9982" y2="63.5005" gradientUnits="userSpaceOnUse">
<stop stop-color="white" stop-opacity="0.8"/>
<stop offset="1" stop-color="white" stop-opacity="0.5"/>
</linearGradient>
<linearGradient id="paint2_linear_11584_427" x1="52.9974" y1="42.5" x2="52.9974" y2="63.5005" gradientUnits="userSpaceOnUse">
<stop stop-color="white" stop-opacity="0.8"/>
<stop offset="1" stop-color="white" stop-opacity="0.5"/>
</linearGradient>
<linearGradient id="paint3_linear_11584_427" x1="53" y1="32" x2="53" y2="74" gradientUnits="userSpaceOnUse">
<stop stop-color="white" stop-opacity="0.12"/>
<stop offset="1" stop-color="white" stop-opacity="0"/>
</linearGradient>
<clipPath id="clip0_11584_427">
<rect width="42" height="42" fill="white" transform="translate(32 32)"/>
</clipPath>
</defs>
</svg>
