<svg width="242" height="110" viewBox="0 0 242 110" fill="none" xmlns="http://www.w3.org/2000/svg">
<g filter="url(#filter0_d_11584_396)">
<rect x="20" y="18" width="202" height="70" rx="12" fill="white"/>
<path d="M90.464 72.192C89.3333 72.192 88.3253 71.9467 87.44 71.456C86.5653 70.9547 85.8773 70.272 85.376 69.408C84.8747 68.5333 84.624 67.536 84.624 66.416C84.624 65.2747 84.8747 64.272 85.376 63.408C85.8773 62.5333 86.5653 61.8507 87.44 61.36C88.3253 60.8587 89.3333 60.608 90.464 60.608C91.1147 60.608 91.7227 60.7093 92.288 60.912C92.864 61.1147 93.3813 61.392 93.84 61.744C94.2987 62.0853 94.672 62.4853 94.96 62.944L93.456 63.904C93.2533 63.5947 92.992 63.3173 92.672 63.072C92.352 62.8267 92 62.64 91.616 62.512C91.2427 62.3733 90.8587 62.304 90.464 62.304C89.696 62.304 89.0133 62.48 88.416 62.832C87.8293 63.184 87.3653 63.6693 87.024 64.288C86.6827 64.896 86.512 65.6053 86.512 66.416C86.512 67.2053 86.6773 67.9093 87.008 68.528C87.3493 69.1467 87.8187 69.632 88.416 69.984C89.024 70.336 89.7227 70.512 90.512 70.512C91.1307 70.512 91.6853 70.384 92.176 70.128C92.6667 69.872 93.0507 69.5147 93.328 69.056C93.616 68.5973 93.76 68.0693 93.76 67.472L95.536 67.248C95.536 68.2613 95.3173 69.1413 94.88 69.888C94.4533 70.624 93.856 71.1947 93.088 71.6C92.3307 71.9947 91.456 72.192 90.464 72.192ZM91.072 67.616V66.112H95.536V67.36L94.544 67.616H91.072ZM98.176 67.744C98.176 66.88 98.3413 66.1707 98.672 65.616C99.0027 65.0613 99.4293 64.6507 99.952 64.384C100.485 64.1067 101.04 63.968 101.616 63.968V65.68C101.125 65.68 100.661 65.7493 100.224 65.888C99.7973 66.016 99.4507 66.2293 99.184 66.528C98.9173 66.8267 98.784 67.2213 98.784 67.712L98.176 67.744ZM96.992 72V64H98.784V72H96.992ZM107.685 72L107.605 70.496V67.888C107.605 67.344 107.546 66.8907 107.429 66.528C107.322 66.1547 107.141 65.872 106.885 65.68C106.639 65.4773 106.309 65.376 105.893 65.376C105.509 65.376 105.173 65.456 104.885 65.616C104.597 65.776 104.351 66.0267 104.149 66.368L102.581 65.792C102.751 65.44 102.975 65.1147 103.253 64.816C103.541 64.5067 103.898 64.2613 104.325 64.08C104.762 63.8987 105.285 63.808 105.893 63.808C106.671 63.808 107.322 63.9627 107.845 64.272C108.367 64.5707 108.751 65.0027 108.997 65.568C109.253 66.1333 109.381 66.816 109.381 67.616L109.333 72H107.685ZM105.381 72.192C104.421 72.192 103.674 71.9787 103.141 71.552C102.618 71.1253 102.357 70.5227 102.357 69.744C102.357 68.912 102.634 68.2773 103.189 67.84C103.754 67.4027 104.538 67.184 105.541 67.184H107.685V68.56H106.117C105.402 68.56 104.901 68.6613 104.613 68.864C104.325 69.056 104.181 69.3333 104.181 69.696C104.181 70.0053 104.303 70.2507 104.549 70.432C104.805 70.6027 105.157 70.688 105.605 70.688C106.01 70.688 106.362 70.5973 106.661 70.416C106.959 70.2347 107.189 69.9947 107.349 69.696C107.519 69.3973 107.605 69.0613 107.605 68.688H108.133C108.133 69.776 107.914 70.6347 107.477 71.264C107.039 71.8827 106.341 72.192 105.381 72.192ZM111.275 75.2V64H112.955L113.067 65.472V75.2H111.275ZM115.595 72.192C114.923 72.192 114.342 72.0213 113.851 71.68C113.371 71.328 113.003 70.8373 112.747 70.208C112.491 69.5787 112.363 68.8427 112.363 68C112.363 67.1467 112.491 66.4107 112.747 65.792C113.003 65.1627 113.371 64.6773 113.851 64.336C114.342 63.984 114.923 63.808 115.595 63.808C116.32 63.808 116.95 63.984 117.483 64.336C118.027 64.6773 118.448 65.1627 118.747 65.792C119.056 66.4107 119.211 67.1467 119.211 68C119.211 68.8427 119.056 69.5787 118.747 70.208C118.448 70.8373 118.027 71.328 117.483 71.68C116.95 72.0213 116.32 72.192 115.595 72.192ZM115.147 70.56C115.574 70.56 115.952 70.4533 116.283 70.24C116.614 70.016 116.875 69.712 117.067 69.328C117.27 68.944 117.371 68.5013 117.371 68C117.371 67.4987 117.275 67.056 117.083 66.672C116.902 66.288 116.646 65.9893 116.315 65.776C115.984 65.5627 115.6 65.456 115.163 65.456C114.758 65.456 114.395 65.5627 114.075 65.776C113.755 65.9893 113.504 66.288 113.323 66.672C113.152 67.056 113.067 67.4987 113.067 68C113.067 68.5013 113.152 68.944 113.323 69.328C113.504 69.712 113.75 70.016 114.059 70.24C114.379 70.4533 114.742 70.56 115.147 70.56ZM120.758 72V60.8H122.55V72H120.758ZM126.182 72V67.904H127.974V72H126.182ZM126.182 67.904C126.182 67.264 126.107 66.7733 125.958 66.432C125.809 66.08 125.601 65.8347 125.334 65.696C125.078 65.5573 124.779 65.488 124.438 65.488C123.83 65.4773 123.361 65.6747 123.03 66.08C122.71 66.4853 122.55 67.0667 122.55 67.824H121.862C121.862 66.9813 121.985 66.2613 122.23 65.664C122.486 65.056 122.843 64.5973 123.302 64.288C123.761 63.968 124.305 63.808 124.934 63.808C125.563 63.808 126.107 63.936 126.566 64.192C127.025 64.448 127.371 64.848 127.606 65.392C127.851 65.9253 127.974 66.624 127.974 67.488V67.904H126.182ZM129.901 72V64H131.677V72H129.901ZM130.797 62.48C130.509 62.48 130.258 62.3787 130.045 62.176C129.842 61.9627 129.741 61.712 129.741 61.424C129.741 61.136 129.842 60.8907 130.045 60.688C130.258 60.4853 130.509 60.384 130.797 60.384C131.085 60.384 131.33 60.4853 131.533 60.688C131.746 60.8907 131.853 61.136 131.853 61.424C131.853 61.712 131.746 61.9627 131.533 62.176C131.33 62.3787 131.085 62.48 130.797 62.48ZM137.533 72.192C136.712 72.192 135.986 72.016 135.357 71.664C134.728 71.3013 134.232 70.8053 133.869 70.176C133.517 69.5467 133.341 68.8213 133.341 68C133.341 67.1787 133.517 66.4533 133.869 65.824C134.232 65.1947 134.722 64.704 135.341 64.352C135.97 63.9893 136.69 63.808 137.501 63.808C138.29 63.808 139.005 64 139.645 64.384C140.285 64.7573 140.76 65.296 141.069 66L139.405 66.64C139.234 66.288 138.973 66.0053 138.621 65.792C138.269 65.5787 137.869 65.472 137.421 65.472C136.984 65.472 136.594 65.584 136.253 65.808C135.912 66.0213 135.645 66.32 135.453 66.704C135.261 67.0773 135.165 67.5093 135.165 68C135.165 68.4907 135.261 68.928 135.453 69.312C135.656 69.6853 135.928 69.984 136.269 70.208C136.621 70.4213 137.016 70.528 137.453 70.528C137.901 70.528 138.301 70.416 138.653 70.192C139.005 69.9573 139.266 69.6427 139.437 69.248L141.101 69.888C140.792 70.6133 140.317 71.1787 139.677 71.584C139.048 71.9893 138.333 72.192 137.533 72.192ZM146.687 72V60.8H150.207C151.306 60.8 152.277 61.04 153.119 61.52C153.973 61.9893 154.639 62.6453 155.119 63.488C155.61 64.3307 155.855 65.3013 155.855 66.4C155.855 67.488 155.61 68.4533 155.119 69.296C154.639 70.1387 153.973 70.8 153.119 71.28C152.277 71.76 151.306 72 150.207 72H146.687ZM148.543 70.272H150.207C150.73 70.272 151.221 70.176 151.679 69.984C152.138 69.7813 152.538 69.504 152.879 69.152C153.221 68.8 153.487 68.3893 153.679 67.92C153.871 67.4507 153.967 66.944 153.967 66.4C153.967 65.856 153.871 65.3493 153.679 64.88C153.487 64.4107 153.221 64 152.879 63.648C152.538 63.296 152.138 63.024 151.679 62.832C151.221 62.6293 150.73 62.528 150.207 62.528H148.543V70.272ZM161.044 72.192C160.266 72.192 159.572 72.016 158.964 71.664C158.367 71.3013 157.892 70.8053 157.54 70.176C157.199 69.5467 157.028 68.8213 157.028 68C157.028 67.1787 157.204 66.4533 157.556 65.824C157.908 65.1947 158.388 64.704 158.996 64.352C159.615 63.9893 160.319 63.808 161.108 63.808C161.823 63.808 162.468 63.9947 163.044 64.368C163.62 64.7307 164.074 65.2587 164.404 65.952C164.746 66.6453 164.916 67.472 164.916 68.432H158.628L158.868 68.208C158.868 68.6987 158.975 69.1253 159.188 69.488C159.402 69.84 159.684 70.112 160.036 70.304C160.388 70.496 160.778 70.592 161.204 70.592C161.695 70.592 162.1 70.4853 162.42 70.272C162.74 70.048 162.991 69.76 163.172 69.408L164.756 70.08C164.532 70.5067 164.244 70.88 163.892 71.2C163.551 71.52 163.14 71.7653 162.66 71.936C162.191 72.1067 161.652 72.192 161.044 72.192ZM158.98 67.28L158.724 67.056H163.236L162.996 67.28C162.996 66.8427 162.9 66.4853 162.708 66.208C162.516 65.92 162.271 65.7067 161.972 65.568C161.684 65.4187 161.38 65.344 161.06 65.344C160.74 65.344 160.42 65.4187 160.1 65.568C159.78 65.7067 159.514 65.92 159.3 66.208C159.087 66.4853 158.98 66.8427 158.98 67.28ZM169.201 72.192C168.668 72.192 168.177 72.112 167.729 71.952C167.281 71.792 166.897 71.568 166.577 71.28C166.257 70.9813 166.012 70.6347 165.841 70.24L167.393 69.552C167.553 69.8507 167.788 70.1013 168.097 70.304C168.417 70.5067 168.769 70.608 169.153 70.608C169.569 70.608 169.9 70.5387 170.145 70.4C170.401 70.2507 170.529 70.048 170.529 69.792C170.529 69.5467 170.433 69.36 170.241 69.232C170.049 69.0933 169.777 68.9813 169.425 68.896L168.673 68.688C167.916 68.496 167.324 68.192 166.897 67.776C166.47 67.3493 166.257 66.864 166.257 66.32C166.257 65.52 166.513 64.9013 167.025 64.464C167.548 64.0267 168.294 63.808 169.265 63.808C169.756 63.808 170.204 63.8827 170.609 64.032C171.025 64.1707 171.382 64.3733 171.681 64.64C171.98 64.896 172.188 65.2 172.305 65.552L170.817 66.224C170.71 65.9573 170.508 65.7547 170.209 65.616C169.91 65.4667 169.58 65.392 169.217 65.392C168.854 65.392 168.572 65.472 168.369 65.632C168.166 65.7813 168.065 65.9947 168.065 66.272C168.065 66.432 168.156 66.5813 168.337 66.72C168.518 66.848 168.78 66.9547 169.121 67.04L170.065 67.264C170.588 67.392 171.014 67.5947 171.345 67.872C171.676 68.1387 171.921 68.4427 172.081 68.784C172.241 69.1147 172.321 69.4507 172.321 69.792C172.321 70.272 172.182 70.6933 171.905 71.056C171.638 71.4187 171.27 71.7013 170.801 71.904C170.332 72.096 169.798 72.192 169.201 72.192ZM173.854 72V64H175.63V72H173.854ZM174.75 62.48C174.462 62.48 174.211 62.3787 173.998 62.176C173.795 61.9627 173.694 61.712 173.694 61.424C173.694 61.136 173.795 60.8907 173.998 60.688C174.211 60.4853 174.462 60.384 174.75 60.384C175.038 60.384 175.283 60.4853 175.486 60.688C175.699 60.8907 175.806 61.136 175.806 61.424C175.806 61.712 175.699 61.9627 175.486 62.176C175.283 62.3787 175.038 62.48 174.75 62.48ZM181.182 75.408C180.617 75.408 180.105 75.36 179.646 75.264C179.198 75.168 178.819 75.056 178.51 74.928C178.201 74.8 177.961 74.6773 177.79 74.56L178.478 73.12C178.627 73.1947 178.825 73.2853 179.07 73.392C179.326 73.5093 179.625 73.6107 179.966 73.696C180.307 73.7813 180.691 73.824 181.118 73.824C181.577 73.824 181.987 73.728 182.35 73.536C182.713 73.3547 182.995 73.072 183.198 72.688C183.401 72.304 183.502 71.8133 183.502 71.216V64H185.294V71.168C185.294 72.0747 185.123 72.8427 184.782 73.472C184.441 74.112 183.961 74.592 183.342 74.912C182.723 75.2427 182.003 75.408 181.182 75.408ZM180.91 71.84C180.185 71.84 179.55 71.6747 179.006 71.344C178.473 71.0133 178.051 70.5547 177.742 69.968C177.443 69.3707 177.294 68.6827 177.294 67.904C177.294 67.072 177.443 66.352 177.742 65.744C178.051 65.136 178.473 64.6613 179.006 64.32C179.55 63.9787 180.185 63.808 180.91 63.808C181.561 63.808 182.126 63.9787 182.606 64.32C183.097 64.6613 183.475 65.1413 183.742 65.76C184.009 66.368 184.142 67.088 184.142 67.92C184.142 68.7093 184.009 69.3973 183.742 69.984C183.475 70.5707 183.097 71.0293 182.606 71.36C182.126 71.68 181.561 71.84 180.91 71.84ZM181.406 70.32C181.811 70.32 182.163 70.2133 182.462 70C182.771 69.7867 183.011 69.4987 183.182 69.136C183.353 68.7627 183.438 68.336 183.438 67.856C183.438 67.3653 183.353 66.9387 183.182 66.576C183.011 66.2027 182.771 65.9147 182.462 65.712C182.153 65.4987 181.795 65.392 181.39 65.392C180.963 65.392 180.585 65.4987 180.254 65.712C179.934 65.9147 179.678 66.2027 179.486 66.576C179.305 66.9387 179.214 67.3653 179.214 67.856C179.214 68.336 179.305 68.7627 179.486 69.136C179.678 69.4987 179.939 69.7867 180.27 70C180.601 70.2133 180.979 70.32 181.406 70.32ZM187.273 72V64H188.953L189.065 65.472V72H187.273ZM192.697 72V67.904H194.489V72H192.697ZM192.697 67.904C192.697 67.264 192.623 66.7733 192.473 66.432C192.335 66.08 192.132 65.8347 191.865 65.696C191.609 65.5573 191.305 65.488 190.953 65.488C190.356 65.4773 189.892 65.6747 189.561 66.08C189.231 66.4853 189.065 67.0667 189.065 67.824H188.393C188.393 66.9813 188.516 66.2613 188.761 65.664C189.007 65.056 189.359 64.5973 189.817 64.288C190.276 63.968 190.82 63.808 191.449 63.808C192.089 63.808 192.633 63.936 193.081 64.192C193.54 64.448 193.887 64.848 194.121 65.392C194.367 65.9253 194.489 66.624 194.489 67.488V67.904H192.697ZM199.873 72.192C199.094 72.192 198.401 72.016 197.793 71.664C197.195 71.3013 196.721 70.8053 196.368 70.176C196.027 69.5467 195.857 68.8213 195.857 68C195.857 67.1787 196.033 66.4533 196.385 65.824C196.737 65.1947 197.217 64.704 197.825 64.352C198.443 63.9893 199.147 63.808 199.937 63.808C200.651 63.808 201.297 63.9947 201.873 64.368C202.449 64.7307 202.902 65.2587 203.233 65.952C203.574 66.6453 203.745 67.472 203.745 68.432H197.457L197.697 68.208C197.697 68.6987 197.803 69.1253 198.017 69.488C198.23 69.84 198.513 70.112 198.865 70.304C199.217 70.496 199.606 70.592 200.033 70.592C200.523 70.592 200.929 70.4853 201.249 70.272C201.569 70.048 201.819 69.76 202.001 69.408L203.585 70.08C203.361 70.5067 203.073 70.88 202.721 71.2C202.379 71.52 201.969 71.7653 201.489 71.936C201.019 72.1067 200.481 72.192 199.873 72.192ZM197.809 67.28L197.553 67.056H202.065L201.825 67.28C201.825 66.8427 201.729 66.4853 201.537 66.208C201.345 65.92 201.099 65.7067 200.801 65.568C200.513 65.4187 200.209 65.344 199.889 65.344C199.569 65.344 199.249 65.4187 198.929 65.568C198.609 65.7067 198.342 65.92 198.129 66.208C197.915 66.4853 197.809 66.8427 197.809 67.28ZM206.301 67.744C206.301 66.88 206.466 66.1707 206.797 65.616C207.128 65.0613 207.554 64.6507 208.077 64.384C208.61 64.1067 209.165 63.968 209.741 63.968V65.68C209.25 65.68 208.786 65.7493 208.349 65.888C207.922 66.016 207.576 66.2293 207.309 66.528C207.042 66.8267 206.909 67.2213 206.909 67.712L206.301 67.744ZM205.117 72V64H206.909V72H205.117Z" fill="#1F1F1F"/>
<g clip-path="url(#clip0_11584_396)">
<mask id="mask0_11584_396" style="mask-type:luminance" maskUnits="userSpaceOnUse" x="32" y="32" width="42" height="42">
<path d="M63.5 32H42.5C36.701 32 32 36.701 32 42.5V63.5C32 69.299 36.701 74 42.5 74H63.5C69.299 74 74 69.299 74 63.5V42.5C74 36.701 69.299 32 63.5 32Z" fill="white"/>
</mask>
<g mask="url(#mask0_11584_396)">
<path d="M63.5 32H42.5C36.701 32 32 36.701 32 42.5V63.5C32 69.299 36.701 74 42.5 74H63.5C69.299 74 74 69.299 74 63.5V42.5C74 36.701 69.299 32 63.5 32Z" fill="#155EEF"/>
<path d="M32 32H74V74H32V32Z" fill="url(#paint0_linear_11584_396)"/>
<path opacity="0.4" d="M67.3071 51.187C65.9429 52.5513 63.7311 52.5513 62.3669 51.187C61.0027 49.8228 61.0027 47.611 62.3669 46.2468C63.7311 44.8826 65.9429 44.8826 67.3071 46.2468C68.6713 47.611 68.6713 49.8228 67.3071 51.187Z" fill="url(#paint1_linear_11584_396)"/>
<path opacity="0.6" d="M67.3019 51.1871C65.9377 52.5513 63.7259 52.5512 62.3617 51.1871L57.4829 46.3082C56.1187 44.9441 53.9069 44.9441 52.5427 46.3082C51.1785 47.6725 51.1785 49.8843 52.5427 51.2485L57.4214 56.1272C58.7856 57.4914 60.9975 57.4914 62.3617 56.1272L67.3019 51.1871Z" fill="url(#paint2_linear_11584_396)"/>
<path d="M62.3628 56.1279C60.9985 57.4921 58.7867 57.4921 57.4226 56.1279L47.9538 46.6591C46.1348 44.8402 43.1858 44.8402 41.3669 46.6591L37.25 50.7759C38.6142 49.4117 40.826 49.4117 42.1902 50.7759L52.4823 61.068C53.8466 62.4323 56.0584 62.4323 57.4226 61.068L62.3628 56.1279Z" fill="url(#paint3_linear_11584_396)"/>
</g>
<path d="M63.5 32.875H42.5C37.1843 32.875 32.875 37.1843 32.875 42.5V63.5C32.875 68.8157 37.1843 73.125 42.5 73.125H63.5C68.8157 73.125 73.125 68.8157 73.125 63.5V42.5C73.125 37.1843 68.8157 32.875 63.5 32.875Z" stroke="url(#paint4_linear_11584_396)" stroke-width="2"/>
</g>
<path d="M88.1109 48L84.7669 36.48H86.4949L89.4229 47.088H89.0069L91.7909 36.48H93.7909L96.5909 47.088H96.1749L99.1029 36.48H100.735L97.3909 48H95.4069L92.5909 37.68H92.9269L90.0949 48H88.1109ZM105.188 48.16C104.367 48.16 103.641 47.9787 103.012 47.616C102.393 47.2533 101.908 46.752 101.556 46.112C101.204 45.472 101.028 44.736 101.028 43.904C101.028 43.0613 101.199 42.3253 101.54 41.696C101.892 41.056 102.383 40.56 103.012 40.208C103.641 39.856 104.361 39.68 105.172 39.68C105.961 39.68 106.644 39.8507 107.22 40.192C107.807 40.5227 108.255 40.9867 108.564 41.584C108.884 42.1813 109.044 42.8907 109.044 43.712C109.044 43.84 109.039 43.9627 109.028 44.08C109.028 44.1867 109.017 44.2987 108.996 44.416H102.148V43.168H107.828L107.412 43.664C107.412 42.7893 107.215 42.1227 106.82 41.664C106.425 41.2053 105.876 40.976 105.172 40.976C104.415 40.976 103.812 41.2373 103.364 41.76C102.927 42.272 102.708 42.9867 102.708 43.904C102.708 44.832 102.927 45.5573 103.364 46.08C103.812 46.6027 104.431 46.864 105.22 46.864C105.7 46.864 106.116 46.768 106.468 46.576C106.82 46.3733 107.081 46.08 107.252 45.696H108.82C108.553 46.464 108.1 47.0667 107.46 47.504C106.831 47.9413 106.073 48.16 105.188 48.16ZM115.098 48.144C114.33 48.144 113.69 47.9627 113.178 47.6C112.666 47.2267 112.33 46.7093 112.17 46.048L112.33 46.016V48H110.746V36.48H112.41V41.712L112.234 41.664C112.415 41.0453 112.767 40.56 113.29 40.208C113.823 39.856 114.463 39.68 115.21 39.68C115.946 39.68 116.581 39.856 117.114 40.208C117.658 40.56 118.074 41.0507 118.362 41.68C118.661 42.3093 118.81 43.0453 118.81 43.888C118.81 44.7413 118.655 45.488 118.346 46.128C118.037 46.768 117.605 47.264 117.05 47.616C116.495 47.968 115.845 48.144 115.098 48.144ZM114.746 46.768C115.471 46.768 116.047 46.512 116.474 46C116.901 45.488 117.114 44.784 117.114 43.888C117.114 43.0027 116.901 42.3147 116.474 41.824C116.047 41.3227 115.466 41.072 114.73 41.072C114.005 41.072 113.423 41.328 112.986 41.84C112.559 42.3413 112.346 43.04 112.346 43.936C112.346 44.8107 112.559 45.504 112.986 46.016C113.423 46.5173 114.01 46.768 114.746 46.768ZM121.137 48V39.056C121.137 38.224 121.371 37.5893 121.841 37.152C122.31 36.704 123.03 36.48 124.001 36.48H127.105V37.84H124.145C123.675 37.84 123.334 37.9573 123.121 38.192C122.907 38.416 122.801 38.736 122.801 39.152V48H121.137ZM119.569 41.232V39.84H124.545V41.232H119.569ZM126.337 48V36.48H127.985V48H126.337ZM133.861 48.16C133.029 48.16 132.298 47.9787 131.669 47.616C131.039 47.2427 130.549 46.736 130.197 46.096C129.845 45.4453 129.669 44.7093 129.669 43.888C129.669 43.056 129.845 42.3253 130.197 41.696C130.559 41.0667 131.05 40.576 131.669 40.224C132.298 39.8613 133.029 39.68 133.861 39.68C134.703 39.68 135.439 39.8613 136.069 40.224C136.698 40.576 137.183 41.0667 137.525 41.696C137.877 42.3253 138.053 43.056 138.053 43.888C138.053 44.7093 137.877 45.4453 137.525 46.096C137.183 46.736 136.698 47.2427 136.069 47.616C135.439 47.9787 134.703 48.16 133.861 48.16ZM133.861 46.8C134.362 46.8 134.794 46.6773 135.157 46.432C135.53 46.1867 135.823 45.8453 136.037 45.408C136.25 44.9707 136.357 44.4587 136.357 43.872C136.357 42.9973 136.122 42.3093 135.653 41.808C135.194 41.296 134.597 41.04 133.861 41.04C133.135 41.04 132.538 41.296 132.069 41.808C131.61 42.32 131.381 43.008 131.381 43.872C131.381 44.4587 131.482 44.9707 131.685 45.408C131.898 45.8453 132.191 46.1867 132.565 46.432C132.949 46.6773 133.381 46.8 133.861 46.8ZM141.27 48L138.774 39.84H140.486L142.182 46.4H141.942L144.006 39.84H145.446L147.51 46.4H147.286L148.966 39.84H150.598L148.102 48H146.646L144.582 41.552H144.822L142.726 48H141.27Z" fill="#444444"/>
</g>
<defs>
<filter id="filter0_d_11584_396" x="0" y="0" width="242" height="110" filterUnits="userSpaceOnUse" color-interpolation-filters="sRGB">
<feFlood flood-opacity="0" result="BackgroundImageFix"/>
<feColorMatrix in="SourceAlpha" type="matrix" values="0 0 0 0 0 0 0 0 0 0 0 0 0 0 0 0 0 0 127 0" result="hardAlpha"/>
<feOffset dy="2"/>
<feGaussianBlur stdDeviation="10"/>
<feComposite in2="hardAlpha" operator="out"/>
<feColorMatrix type="matrix" values="0 0 0 0 0.262745 0 0 0 0 0.262745 0 0 0 0 0.262745 0 0 0 0.1 0"/>
<feBlend mode="normal" in2="BackgroundImageFix" result="effect1_dropShadow_11584_396"/>
<feBlend mode="normal" in="SourceGraphic" in2="effect1_dropShadow_11584_396" result="shape"/>
</filter>
<linearGradient id="paint0_linear_11584_396" x1="53" y1="32" x2="54.75" y2="74" gradientUnits="userSpaceOnUse">
<stop stop-color="white" stop-opacity="0"/>
<stop offset="1" stop-color="white" stop-opacity="0.12"/>
</linearGradient>
<linearGradient id="paint1_linear_11584_396" x1="64.837" y1="45.2237" x2="64.837" y2="52.2102" gradientUnits="userSpaceOnUse">
<stop stop-color="white" stop-opacity="0.8"/>
<stop offset="1" stop-color="white" stop-opacity="0.5"/>
</linearGradient>
<linearGradient id="paint2_linear_11584_396" x1="59.4107" y1="45.2851" x2="59.4107" y2="57.1504" gradientUnits="userSpaceOnUse">
<stop stop-color="white" stop-opacity="0.8"/>
<stop offset="1" stop-color="white" stop-opacity="0.5"/>
</linearGradient>
<linearGradient id="paint3_linear_11584_396" x1="49.8064" y1="45.2949" x2="49.8064" y2="62.0913" gradientUnits="userSpaceOnUse">
<stop stop-color="white" stop-opacity="0.8"/>
<stop offset="1" stop-color="white" stop-opacity="0.5"/>
</linearGradient>
<linearGradient id="paint4_linear_11584_396" x1="53" y1="32" x2="53" y2="74" gradientUnits="userSpaceOnUse">
<stop stop-color="white" stop-opacity="0.12"/>
<stop offset="1" stop-color="white" stop-opacity="0"/>
</linearGradient>
<clipPath id="clip0_11584_396">
<rect width="42" height="42" fill="white" transform="translate(32 32)"/>
</clipPath>
</defs>
</svg>
